<svg width="62" height="53" viewBox="0 0 62 53" fill="none" xmlns="http://www.w3.org/2000/svg">
<path d="M54.8244 23.3795V4.55104C54.8244 4.14616 54.6636 3.75785 54.3773 3.47155C54.091 3.18526 53.7027 3.02441 53.2978 3.02441H5.4634C5.05851 3.02441 4.67021 3.18526 4.38391 3.47155C4.09761 3.75785 3.93677 4.14616 3.93677 4.55104V23.3795M54.8244 23.3795H3.93677M54.8244 23.3795L52.8144 29.9542C52.4962 30.9965 51.8517 31.9091 50.976 32.5577C50.1002 33.2063 49.0393 33.5566 47.9495 33.557H44.6469M3.93677 23.3795L5.94683 29.9542C6.26505 30.9965 6.90948 31.9091 7.78526 32.5577C8.66103 33.2063 9.7219 33.5566 10.8117 33.557H14.1143M44.6469 13.202H47.1913M23.0196 32.2848C23.0196 32.2848 23.0196 50.0955 14.1143 50.0955M35.7416 32.2848C35.7416 32.2848 35.7416 50.0955 44.6469 50.0955M29.3806 32.2848V50.0955" stroke="#32798F" stroke-width="4" stroke-linecap="round" stroke-linejoin="round"/>
</svg>
