<svg width="61" height="53" viewBox="0 0 61 53" fill="none" xmlns="http://www.w3.org/2000/svg">
<g clip-path="url(#clip0_171_424)">
<path d="M45.0645 9.00009L45.0895 8.97255M52.5752 6.47149V46.5285C52.5752 47.8565 52.0476 49.1301 51.1086 50.0691C50.1696 51.0081 48.896 51.5357 47.568 51.5357H12.5181C11.1901 51.5357 9.91656 51.0081 8.97754 50.0691C8.03852 49.1301 7.51099 47.8565 7.51099 46.5285V6.47149C7.51099 5.14351 8.03852 3.86993 8.97754 2.93091C9.91656 1.99189 11.1901 1.46436 12.5181 1.46436H47.568C48.896 1.46436 50.1696 1.99189 51.1086 2.93091C52.0476 3.86993 52.5752 5.14351 52.5752 6.47149Z" stroke="#32798F" stroke-width="4" stroke-linecap="round" stroke-linejoin="round"/>
<path d="M30.0431 44.025C34.027 44.025 37.8478 42.4424 40.6648 39.6253C43.4819 36.8082 45.0645 32.9875 45.0645 29.0036C45.0645 25.0196 43.4819 21.1989 40.6648 18.3818C37.8478 15.5648 34.027 13.9822 30.0431 13.9822C26.0592 13.9822 22.2384 15.5648 19.4214 18.3818C16.6043 21.1989 15.0217 25.0196 15.0217 29.0036C15.0217 32.9875 16.6043 36.8082 19.4214 39.6253C22.2384 42.4424 26.0592 44.025 30.0431 44.025Z" stroke="#32798F" stroke-width="4" stroke-linecap="round" stroke-linejoin="round"/>
<path d="M30.0432 36.5144C28.0512 36.5144 26.1408 35.7231 24.7323 34.3145C23.3238 32.906 22.5325 30.9956 22.5325 29.0037" stroke="#32798F" stroke-width="4" stroke-linecap="round" stroke-linejoin="round"/>
</g>
<defs>
<clipPath id="clip0_171_424">
<rect width="60.2745" height="53" fill="white"/>
</clipPath>
</defs>
</svg>
