<svg width="70" height="53" viewBox="0 0 70 53" fill="none" xmlns="http://www.w3.org/2000/svg">
<path d="M2.55799 41.197C28.5949 33.7956 38.1117 48.7525 67.013 41.2084C68.0856 40.9285 68.7281 39.8319 68.4481 38.7593C68.1682 37.6868 67.0716 37.0444 65.9991 37.3242C60.325 38.8054 55.4069 39.3536 50.9532 39.3595L45.134 29.9806C48.5738 34.2547 54.9668 34.501 58.7124 30.5179C60.3593 28.7669 61.2256 26.4792 61.152 24.0765C60.905 16.0217 51.0361 12.4076 45.6011 18.1868C42.9829 20.9709 42.508 24.9295 43.9821 28.1236L36.0196 15.2904L47.8356 11.8808C51.5051 10.8219 53.2394 6.62151 51.375 3.2806C50.0212 0.85484 47.2114 -0.301572 44.5426 0.468655L26.6541 5.63075C22.016 6.96929 19.9389 12.3609 22.4857 16.4657L27.8925 25.18C23.995 27.5993 11.6329 35.2652 11.5016 35.3562C8.39865 35.6842 5.07554 36.3079 1.46059 37.3356C0.394365 37.6387 -0.224386 38.7488 0.0787004 39.8151C0.381653 40.8816 1.49217 41.5001 2.55799 41.197ZM48.5253 20.9372C50.4147 18.9281 53.5687 18.837 55.572 20.721C57.5789 22.6084 57.6759 25.7605 55.7882 27.7678C53.9011 29.7745 50.7487 29.8718 48.7415 27.9841C46.7345 26.0965 46.6376 22.9444 48.5253 20.9372ZM32.3616 24.7693L25.8967 14.3495C24.7549 12.5091 25.6845 10.0889 27.7669 9.48791L45.6554 4.32581C46.5208 4.07585 47.4307 4.45093 47.8695 5.23694C48.4748 6.32176 47.9091 7.6813 46.7225 8.02373L32.3603 12.1683C31.082 12.5372 30.511 14.0266 31.2112 15.155L46.1027 39.156C36.7376 38.3698 29.128 35.5453 19.4927 35.1163L31.7144 27.533C32.6563 26.9486 32.9461 25.7113 32.3616 24.7693Z" fill="#32798F"/>
<path d="M65.9976 46.6912C38.3461 53.9093 28.6432 38.9748 1.45888 46.7026C0.392656 47.0057 -0.226095 48.1158 0.0769914 49.1821C0.380078 50.2485 1.49059 50.8672 2.55654 50.564C28.5935 43.1626 38.1102 58.1195 67.0115 50.5754C68.0842 50.2955 68.7266 49.1989 68.4467 48.1264C68.1667 47.0537 67.0701 46.4114 65.9976 46.6912Z" fill="#32798F"/>
</svg>
