<svg width="61" height="53" viewBox="0 0 61 53" fill="none" xmlns="http://www.w3.org/2000/svg">
<path d="M15.9001 7.06667H44.4023C45.3765 7.06667 46.169 7.85919 46.169 8.83333C46.169 9.80747 45.3765 10.6 44.4023 10.6H33.6845C30.7621 10.6 28.3845 12.9776 28.3845 15.9V16.6667C28.3845 17.219 28.8323 17.6667 29.3845 17.6667H30.9179C31.4702 17.6667 31.9179 17.219 31.9179 16.6667V15.9C31.9179 14.9259 32.7104 14.1333 33.6845 14.1333H44.4023C47.3247 14.1333 49.7023 11.7558 49.7023 8.83333C49.7023 5.91091 47.3247 3.53333 44.4023 3.53333H15.9001C14.926 3.53333 14.1334 2.74081 14.1334 1.76667V1C14.1334 0.447715 13.6857 0 13.1334 0H11.6001C11.0478 0 10.6001 0.447715 10.6001 1V1.76667C10.6001 4.68909 12.9777 7.06667 15.9001 7.06667Z" fill="#32798F"/>
<path d="M47.3793 39.4166C47.5591 39.0826 47.9039 38.8669 48.2832 38.8669H53.2356C57.1321 38.8669 60.3022 35.6968 60.3022 31.8002C60.3022 27.9036 57.1321 24.7335 53.2356 24.7335H50.7022C50.1499 24.7335 49.7022 24.2858 49.7022 23.7335V22.2002C49.7022 21.6479 49.2545 21.2002 48.7022 21.2002H11.6C11.0477 21.2002 10.6 21.6479 10.6 22.2002V30.1513C10.6 33.9634 11.6856 37.6008 13.6811 40.7048C14.1356 41.4118 13.6534 42.4002 12.813 42.4002H0.999999C0.447715 42.4002 0 42.8479 0 43.4002V44.9335C0 45.4858 0.447715 45.9335 1 45.9335H7.1235C7.50227 45.9335 7.84854 46.1475 8.01793 46.4863L10.9985 52.4474C11.1679 52.7862 11.5141 53.0002 11.8929 53.0002H48.4094C48.7882 53.0002 49.1345 52.7862 49.3039 52.4474L52.2844 46.4863C52.4538 46.1475 52.8001 45.9335 53.1788 45.9335H59.3022C59.8545 45.9335 60.3022 45.4858 60.3022 44.9335V43.4002C60.3022 42.8479 59.8545 42.4002 59.3022 42.4002H47.4893C46.6489 42.4002 46.1665 41.4116 46.6207 40.7045C46.8903 40.2846 47.1433 39.855 47.3793 39.4166ZM53.2356 28.2669C55.1838 28.2669 56.7689 29.8519 56.7689 31.8002C56.7689 33.7485 55.1838 35.3335 53.2356 35.3335H50.3195C49.6601 35.3335 49.1816 34.7061 49.3123 34.0598C49.5693 32.7884 49.7022 31.4806 49.7022 30.1513V29.2669C49.7022 28.7146 50.1499 28.2669 50.7022 28.2669H53.2356ZM14.1333 30.1513V25.7335C14.1333 25.1812 14.581 24.7335 15.1333 24.7335H45.1689C45.7212 24.7335 46.1689 25.1812 46.1689 25.7335V30.1513C46.1689 34.7921 44.2042 39.1169 40.7477 42.1619C40.5708 42.3177 40.3418 42.4002 40.1061 42.4002H20.1962C19.9605 42.4002 19.7314 42.3177 19.5546 42.1619C16.098 39.1169 14.1333 34.7921 14.1333 30.1513ZM47.12 48.9141C46.9506 49.2529 46.6044 49.4669 46.2256 49.4669H14.0766C13.6978 49.4669 13.3516 49.2529 13.1822 48.9141L12.4155 47.3807C12.0831 46.7158 12.5666 45.9335 13.31 45.9335H46.9923C47.7357 45.9335 48.2192 46.7159 47.8868 47.3808L47.12 48.9141Z" fill="#32798F"/>
</svg>
