<svg width="58" height="53" viewBox="0 0 58 53" fill="none" xmlns="http://www.w3.org/2000/svg">
<path d="M28.9092 50.591C28.9092 50.591 48.1819 36.1365 48.1819 20.4774C48.1819 10.4989 39.5538 2.40918 28.9092 2.40918C18.2646 2.40918 9.63647 10.4989 9.63647 20.4774C9.63647 36.1365 28.9092 50.591 28.9092 50.591Z" stroke="#32798F" stroke-width="4" stroke-linejoin="round"/>
<path d="M25.2957 14.4546V33.7273" stroke="#32798F" stroke-width="4" stroke-linecap="round" stroke-linejoin="round"/>
<path d="M25.2957 14.4546H32.5229C33.8008 14.4546 35.0263 14.9622 35.9299 15.8658C36.8335 16.7694 37.3411 17.9949 37.3411 19.2728C37.3411 20.5506 36.8335 21.7762 35.9299 22.6797C35.0263 23.5833 33.8008 24.091 32.5229 24.091H25.2957V14.4546Z" stroke="#32798F" stroke-width="4" stroke-linejoin="round"/>
</svg>
