<svg width="62" height="53" viewBox="0 0 62 53" fill="none" xmlns="http://www.w3.org/2000/svg">
<g clip-path="url(#clip0_171_431)">
<path d="M7.09597 24.9762C7.09597 18.4575 9.68551 12.2058 14.2949 7.59641C18.9043 2.987 25.156 0.397461 31.6747 0.397461C38.1934 0.397461 44.4451 2.987 49.0545 7.59641C53.6639 12.2058 56.2535 18.4575 56.2535 24.9762V42.5325C56.2535 43.4637 55.8835 44.3568 55.225 45.0153C54.5666 45.6738 53.6735 46.0437 52.7422 46.0437H10.6072C9.67598 46.0437 8.78288 45.6738 8.12439 45.0153C7.4659 44.3568 7.09597 43.4637 7.09597 42.5325V24.9762ZM31.6747 3.90871C26.0873 3.90871 20.7287 6.12832 16.7777 10.0792C12.8268 14.0302 10.6072 19.3888 10.6072 24.9762V42.5325H22.9141C20.7372 40.3695 19.3853 37.3323 19.3853 33.7543C19.3853 29.9973 20.5581 27.0549 21.7379 25.0605C22.3539 24.0134 23.0879 23.0402 23.9254 22.1602C23.9956 22.09 24.0553 22.0303 24.101 21.9916L24.1536 21.939L24.1712 21.9214L24.1782 21.9179C24.4894 21.6381 24.8901 21.4749 25.3084 21.464C25.7267 21.4531 26.1352 21.5916 26.4605 21.8547C26.5309 20.7715 26.7678 19.7056 27.1628 18.6946C28.0371 16.486 29.7927 14.3336 32.9528 12.6412C33.2201 12.4981 33.5199 12.4266 33.823 12.4338C34.126 12.441 34.4221 12.5265 34.6823 12.6821C34.9425 12.8376 35.158 13.0579 35.3078 13.3215C35.4576 13.5851 35.5366 13.883 35.5371 14.1861C35.5371 18.1995 37.3278 20.8926 39.403 23.6946L39.8524 24.2915C41.7625 26.8442 43.9641 29.7796 43.9641 33.7543C43.9641 37.3323 42.6123 40.3695 40.4353 42.5325H52.7422V24.9762C52.7422 19.3888 50.5226 14.0302 46.5717 10.0792C42.6208 6.12832 37.2622 3.90871 31.6747 3.90871ZM25.4071 25.847C23.762 28.1544 22.8837 30.9205 22.8966 33.7543C22.8966 38.9756 26.78 42.5325 31.6747 42.5325C36.5694 42.5325 40.4528 38.9756 40.4528 33.7543C40.4528 30.9875 38.943 28.9615 36.8784 26.1806L36.587 25.7873C34.9051 23.5261 33.0476 20.8821 32.3313 17.3112C31.4966 18.0421 30.8448 18.9584 30.4282 19.9867C29.8734 21.3947 29.8875 22.7957 30.0174 23.9369C30.049 24.2213 30.0876 24.4846 30.1227 24.7339L30.1508 24.8955L30.2316 25.4362C30.2527 25.6012 30.3018 25.9594 30.2527 26.314C30.2062 26.6789 30.0577 27.0233 29.8243 27.3077C29.6347 27.5352 29.393 27.7136 29.1198 27.8279C28.8466 27.9422 28.5499 27.989 28.2548 27.9643C27.9499 27.9369 27.6548 27.8422 27.391 27.6869C27.2442 27.601 27.1045 27.5036 26.9732 27.3955C26.7258 27.1887 26.4891 26.9696 26.2639 26.7389C25.9745 26.4452 25.6889 26.1479 25.4071 25.847ZM5.34034 49.555C4.87472 49.555 4.42817 49.7399 4.09893 50.0692C3.76968 50.3984 3.58472 50.845 3.58472 51.3106C3.58472 51.7762 3.76968 52.2228 4.09893 52.552C4.42817 52.8812 4.87472 53.0662 5.34034 53.0662H58.0091C58.4747 53.0662 58.9213 52.8812 59.2505 52.552C59.5797 52.2228 59.7647 51.7762 59.7647 51.3106C59.7647 50.845 59.5797 50.3984 59.2505 50.0692C58.9213 49.7399 58.4747 49.555 58.0091 49.555H5.34034Z" fill="#32798F"/>
</g>
<defs>
<clipPath id="clip0_171_431">
<rect width="58" height="53" fill="white" transform="translate(2)"/>
</clipPath>
</defs>
</svg>
