<svg width="64" height="53" viewBox="0 0 64 53" fill="none" xmlns="http://www.w3.org/2000/svg">
<path d="M31.8751 53C34.1533 53 36.0001 51.14 36.0001 48.8456C36.0001 46.5512 34.1533 44.6912 31.8751 44.6912C29.5969 44.6912 27.7501 46.5512 27.7501 48.8456C27.7501 51.14 29.5969 53 31.8751 53Z" fill="#32798F"/>
<path d="M63.3289 13.7679C55.1126 4.88971 43.9868 0.000125891 31.9995 0C20.0133 0.000125891 8.88745 4.88971 0.671086 13.7679C-0.270162 14.7851 -0.214537 16.3784 0.795461 17.3264C1.80558 18.2744 3.38746 18.2185 4.32883 17.2012C11.5888 9.35618 21.4158 5.03575 32.0004 5.03562C42.5841 5.03575 52.4111 9.35618 59.6711 17.2012C60.1635 17.7332 60.8311 18.0023 61.5005 18.0023C62.1109 18.0023 62.7227 17.7785 63.2045 17.3264C64.2145 16.3782 64.2702 14.7851 63.3289 13.7679Z" fill="#32798F"/>
<path d="M54.1491 24.1657C48.0758 18.0029 40.2097 14.609 31.9997 14.6092C23.7878 14.6094 15.9216 18.0034 9.85009 24.1659C8.87759 25.1531 8.88371 26.7472 9.86384 27.7266C10.844 28.7061 12.4268 28.6999 13.3993 27.7128C18.5249 22.5102 25.1307 19.645 31.9997 19.6448C38.8669 19.6446 45.4727 22.51 50.6002 27.713C51.0889 28.2089 51.7316 28.4572 52.3746 28.4572C53.0111 28.4572 53.6481 28.2137 54.1359 27.7264C55.1158 26.7468 55.1218 25.1527 54.1491 24.1657Z" fill="#32798F"/>
<path d="M44.1439 34.5938C40.8914 31.3484 36.2292 29.3325 31.9765 29.3325H31.9746H31.7945H31.7926C27.5398 29.3325 22.8773 31.3486 19.6249 34.5938C18.6441 35.5724 18.6368 37.1666 19.6085 38.1544C20.0974 38.6513 20.7409 38.9002 21.3845 38.9002C22.0204 38.9002 22.6565 38.6574 23.1439 38.1711C25.4593 35.8607 28.8539 34.3682 31.7929 34.3682H31.975C34.9136 34.3682 38.3096 35.8609 40.6247 38.1711C41.6055 39.1496 43.1886 39.1426 44.1602 38.1544C45.1321 37.1667 45.1247 35.5724 44.1439 34.5938Z" fill="#32798F"/>
</svg>
