<svg width="59" height="55" viewBox="0 0 59 55" fill="none" xmlns="http://www.w3.org/2000/svg">
<mask id="path-1-outside-1_171_406" maskUnits="userSpaceOnUse" x="0" y="0" width="59" height="55" fill="black">
<rect fill="white" width="59" height="55"/>
<path d="M19.7749 52.7205L44.9186 52.7394C45.2651 52.7397 45.5462 53.0217 45.5458 53.3695C45.5458 53.7174 45.2644 53.999 44.9174 53.9989L19.774 53.98C19.4272 53.9797 19.1463 53.6975 19.1466 53.3497C19.1467 53.002 19.4281 52.7202 19.7749 52.7205Z"/>
<path d="M11.9401 11.8772L11.9139 49.4961C11.9137 49.8439 11.6323 50.1257 11.2855 50.1254C10.9387 50.1252 10.6578 49.843 10.6581 49.4952L10.6841 11.8765C10.6844 11.5286 10.9658 11.2468 11.3126 11.2471C11.6594 11.2476 11.9404 11.5298 11.9401 11.8772Z"/>
<path d="M11.4642 43.1134L16.8629 43.1162C17.2097 43.1165 17.4907 43.3986 17.4905 43.7463C17.4902 44.0941 17.209 44.3759 16.8622 44.3757L11.4636 44.3729C11.1168 44.3728 10.8359 44.0906 10.836 43.7428C10.8362 43.395 11.1174 43.1133 11.4642 43.1134Z"/>
<path d="M17.5774 5.89419L17.5503 50.2618C17.55 50.6098 17.2688 50.8915 16.922 50.8912C16.5752 50.8911 16.2942 50.6089 16.2944 50.2611L16.3214 5.89345C16.3217 5.54552 16.603 5.26376 16.9498 5.26406C17.2966 5.26451 17.5777 5.54626 17.5774 5.89419Z"/>
<path d="M16.8279 8.24986L2.25595 8.29245L2.25595 8.29069L2.25609 10.7382L16.7591 10.7462C17.1059 10.7465 17.3868 11.0287 17.3867 11.3766C17.3865 11.7242 17.1051 12.006 16.7583 12.0057L1.62775 11.9977C1.28111 11.9972 1.00015 11.7155 1.00015 11.3679L1 7.66276C1 7.31558 1.28007 7.03368 1.62613 7.03293L16.8243 6.9908C17.1711 6.98961 17.4531 7.27077 17.454 7.6187C17.455 7.96618 17.1747 8.24912 16.8279 8.24986Z"/>
<path d="M16.3766 1.00704L43.449 1.02633C43.7959 1.02677 44.0766 1.30853 44.0766 1.65646C44.0762 2.00438 43.7948 2.28629 43.4478 2.28584L16.3757 2.26655C16.0288 2.26611 15.748 1.98391 15.7481 1.63598C15.7484 1.2885 16.0298 1.0066 16.3766 1.00704Z"/>
<path d="M47.4058 6.92698L56.928 6.89166C57.2735 6.89048 57.5549 7.16926 57.5583 7.51571L57.5932 11.4416C57.5947 11.6098 57.5291 11.7717 57.4106 11.8913C57.2924 12.0106 57.1314 12.0775 56.9637 12.077L47.2812 12.0532C46.9347 12.0527 46.6541 11.7698 46.6551 11.4223C46.6558 11.0744 46.9377 10.7929 47.2846 10.7939L56.9666 10.8175L56.3372 10.816L56.3023 8.15351L56.3023 8.15118L47.4104 8.18649C47.0639 8.18797 46.7816 7.90696 46.7801 7.55933C46.7789 7.2114 47.0593 6.92846 47.4058 6.92698Z"/>
<path d="M47.8421 5.40237L47.8413 50.9874C47.841 51.3352 47.5599 51.6172 47.213 51.6172C46.8665 51.6172 46.5851 51.3352 46.5851 50.9874L46.5861 5.40237C46.5861 5.05444 46.8672 4.77269 47.2142 4.77269C47.5611 4.77269 47.8421 5.05444 47.8421 5.40237Z"/>
<path d="M17.0176 41.1307L46.882 41.1622C47.229 41.1625 47.5097 41.4447 47.5092 41.7926C47.5092 42.1404 47.2275 42.422 46.8809 42.4217L17.0162 42.3903C16.6694 42.3898 16.3886 42.1076 16.3889 41.7598C16.3894 41.412 16.6708 41.1303 17.0176 41.1307Z"/>
<path d="M17.0523 45.0182L46.9058 44.948C47.2528 44.9471 47.5346 45.2284 47.5353 45.5762C47.5361 45.924 47.2554 46.2066 46.9089 46.2075L17.0552 46.2777C16.7084 46.2786 16.4266 45.9973 16.4257 45.6495C16.425 45.3017 16.7055 45.0191 17.0523 45.0182Z"/>
<path d="M16.3959 40.6368L11.4671 40.6632C11.1203 40.6651 10.8377 40.3847 10.8358 40.0369C10.834 39.689 11.1136 39.4056 11.4604 39.4038L16.3892 39.3773C16.736 39.3755 17.0186 39.6559 17.0205 40.0037C17.0223 40.3515 16.7427 40.635 16.3959 40.6368Z"/>
<path d="M12.9218 50.6158L16.8222 50.6407C17.169 50.6429 17.4484 50.9268 17.4463 51.2745C17.4441 51.6223 17.1611 51.9024 16.8143 51.9002L12.9138 51.8753C12.5671 51.8731 12.2876 51.5894 12.2898 51.2415C12.292 50.8937 12.575 50.6136 12.9218 50.6158Z"/>
<path d="M10.5527 7.17727L10.5315 6.79596C10.5306 6.78038 10.5303 6.76436 10.5306 6.74849L10.5385 6.36673C10.5388 6.35071 10.5397 6.33483 10.5411 6.31925L10.5777 5.93898C10.5792 5.9231 10.5812 5.90752 10.584 5.8915L10.6491 5.51553C10.6518 5.49995 10.6551 5.48437 10.6589 5.46879L10.7523 5.09846C10.7561 5.08333 10.7605 5.06775 10.7656 5.05291L10.8866 4.69089C10.8916 4.67576 10.8971 4.66092 10.9033 4.64608L11.0513 4.29445C11.0573 4.27961 11.0641 4.26551 11.0714 4.25112L11.2454 3.9115C11.2526 3.89741 11.2603 3.88346 11.2686 3.87011L11.4677 3.54458C11.476 3.53093 11.4849 3.51758 11.4942 3.50467L11.7173 3.19562C11.7267 3.18256 11.7364 3.1701 11.7466 3.15793L11.9924 2.86624C12.0027 2.85407 12.0134 2.84235 12.0245 2.83093L12.2917 2.55896C12.3028 2.54754 12.3143 2.53656 12.3262 2.52632L12.6132 2.27528C12.625 2.2646 12.6374 2.25466 12.6502 2.24516L12.9551 2.01652C12.9678 2.00703 12.9808 1.99798 12.9943 1.98967L13.3156 1.78492C13.3273 1.7772 13.3393 1.77008 13.3514 1.76355L13.603 1.62572C13.6135 1.62008 13.6241 1.61474 13.6349 1.60984L13.8938 1.48669C13.9046 1.48135 13.9156 1.47646 13.9265 1.4723L14.1921 1.36399C14.2032 1.35939 14.2143 1.35524 14.2255 1.35153L14.4967 1.2588C14.5081 1.25464 14.5195 1.25123 14.5309 1.24811L14.807 1.17111C14.8185 1.1677 14.8301 1.16503 14.8418 1.16236L15.1217 1.10123C15.1334 1.09856 15.1451 1.09618 15.1569 1.0944L15.4399 1.04915C15.4516 1.04722 15.4634 1.04574 15.4753 1.04455L15.7604 1.01577C15.7724 1.01458 15.7842 1.01384 15.7962 1.0131L16.0823 1.00049C16.0943 1.00019 16.1063 0.999743 16.1181 1.00019L16.4047 1.0036C16.7515 1.0085 17.0289 1.29411 17.0243 1.64204C17.0197 1.98967 16.7349 2.26756 16.3881 2.26311L16.1015 2.25926L16.1374 2.25896L15.8511 2.27142L15.8867 2.26875L15.6016 2.29768L15.6371 2.29308L15.3541 2.33834L15.3893 2.33181L15.1094 2.39264L15.1442 2.38418L14.8681 2.46134L14.9023 2.45065L14.6311 2.54338L14.6645 2.53092L14.3991 2.63908L14.4318 2.62469L14.1729 2.74769L14.2048 2.73137L13.9533 2.86891L13.9891 2.84799L13.6678 3.05274L13.707 3.02544L13.4019 3.25408L13.4389 3.22411L13.152 3.47515L13.1866 3.44251L12.9194 3.71477L12.9515 3.67945L12.7056 3.97115L12.7349 3.93361L12.5118 4.24311L12.5383 4.2032L12.3392 4.52872L12.3624 4.48733L12.1884 4.82695L12.2085 4.78362L12.0606 5.13526L12.0775 5.0909L11.9564 5.45292L11.9699 5.40692L11.8767 5.77726L11.8866 5.73052L11.8215 6.10693L11.8279 6.05975L11.7913 6.43958L11.7941 6.3921L11.7863 6.77386L11.7855 6.72608L11.8067 7.10739C11.8259 7.45487 11.5607 7.75191 11.2145 7.77135C10.8681 7.79034 10.5719 7.52446 10.5527 7.17727Z"/>
<path d="M43.605 1.03168L43.8466 1.03553C43.861 1.03583 43.8751 1.03628 43.8894 1.03776L44.13 1.05794C44.1443 1.05913 44.1584 1.06061 44.1724 1.06283L44.4114 1.09933C44.4254 1.10156 44.4393 1.10423 44.4534 1.10735L44.6889 1.16002C44.703 1.16313 44.7166 1.16699 44.7302 1.17114L44.962 1.23984C44.9757 1.2437 44.989 1.24859 45.0026 1.25319L45.2291 1.33791C45.2424 1.34281 45.2556 1.34815 45.2685 1.35423L45.4886 1.45409C45.5018 1.45972 45.5143 1.46625 45.5268 1.47308L45.7397 1.58732C45.7521 1.5943 45.7647 1.60142 45.7768 1.60898L45.9813 1.73777C45.9934 1.74534 46.0051 1.75335 46.0165 1.7621L46.2119 1.90454C46.2233 1.91285 46.2347 1.9216 46.2457 1.9308L46.4309 2.08644C46.4418 2.09564 46.4525 2.10513 46.4627 2.11537L46.6368 2.28288C46.6472 2.29312 46.657 2.30336 46.6664 2.31359L46.8289 2.49327C46.8384 2.50351 46.8475 2.51449 46.8565 2.52591L47.0061 2.71582C47.0149 2.72651 47.0228 2.73793 47.0308 2.74936L47.1573 2.93348C47.1649 2.94446 47.1721 2.95559 47.1789 2.96687L47.2937 3.15915C47.3005 3.17013 47.3069 3.18185 47.313 3.19372L47.4157 3.39269C47.4217 3.40411 47.427 3.41628 47.4327 3.42844L47.5225 3.63319C47.5278 3.64566 47.5327 3.65782 47.5373 3.67044L47.6138 3.88038C47.6182 3.89299 47.6225 3.90545 47.6262 3.91807L47.6898 4.13305C47.6932 4.14552 47.6966 4.15842 47.6997 4.17133L47.7493 4.38973C47.7524 4.40234 47.7551 4.41525 47.7568 4.42846L47.7929 4.64953C47.7951 4.66244 47.7966 4.67579 47.7981 4.6887L47.8201 4.9117C47.8213 4.9249 47.8224 4.93826 47.8228 4.95116L47.8308 5.17491C47.8311 5.18811 47.8311 5.20146 47.8308 5.21467L47.8247 5.43841C47.8153 5.78604 47.5262 6.06023 47.1797 6.05073C46.8327 6.04124 46.5596 5.75147 46.5691 5.40384L46.5751 5.18025L46.5756 5.21971L46.5676 4.99597L46.5703 5.03544L46.5482 4.81288L46.5535 4.85205L46.5176 4.63128L46.5251 4.67L46.4751 4.45205L46.4853 4.49048L46.4222 4.27578L46.4343 4.31347L46.3578 4.10293L46.3726 4.13988L46.2828 3.93513L46.2998 3.97074L46.1971 3.77177L46.2165 3.80634L46.1017 3.6145L46.1233 3.64788L45.9965 3.46376L46.0211 3.49684L45.8711 3.30693L45.8987 3.33957L45.7366 3.16019L45.7666 3.19105L45.5923 3.0231L45.6241 3.05203L45.4393 2.89624L45.4731 2.9228L45.2776 2.78036L45.3131 2.8044L45.1087 2.67562L45.1458 2.69728L44.9329 2.58259L44.9712 2.60158L44.7511 2.50202L44.7909 2.51834L44.5644 2.43362L44.6053 2.44727L44.3735 2.37858L44.4152 2.38926L44.1792 2.33674L44.2216 2.34445L43.9826 2.30795L44.0254 2.31285L43.7845 2.29267L43.8273 2.29505L43.5861 2.29119C43.2392 2.28585 42.9622 1.99949 42.9675 1.65201C42.9729 1.30408 43.2584 1.02678 43.605 1.03168Z"/>
<path d="M44.8421 52.7367L44.9796 52.7407L44.9412 52.7409L45.0784 52.7364L45.0402 52.7388L45.1769 52.7261L45.1386 52.7308L45.2746 52.7096L45.2367 52.7167L45.3707 52.6872L45.3338 52.6965L45.4659 52.659L45.4292 52.6706L45.5586 52.6249L45.5231 52.6388L45.6496 52.5853L45.6147 52.6013L45.7378 52.54L45.7038 52.5583L45.823 52.4896L45.79 52.5097L45.9048 52.4339L45.8735 52.4562L45.9832 52.3734L45.951 52.3995L46.0726 52.2947L46.0396 52.3253L46.1532 52.212L46.1226 52.2447L46.2283 52.1237L46.1999 52.1585L46.2965 52.0302L46.2707 52.067L46.3579 51.9321L46.3348 51.9707L46.412 51.8299L46.3919 51.87L46.4589 51.724L46.4416 51.7655L46.4984 51.6151L46.4839 51.6576L46.5298 51.5036L46.5184 51.5471L46.5529 51.3901L46.5449 51.4343L46.5684 51.2753L46.5631 51.32L46.5752 51.1597L46.5737 51.2047L46.5742 51.0438C46.5752 50.6961 46.8573 50.4151 47.2043 50.4162C47.5509 50.4174 47.8312 50.7004 47.83 51.0481L47.8292 51.209C47.8292 51.224 47.8289 51.2389 47.8277 51.2538L47.8156 51.4142C47.8146 51.4292 47.813 51.444 47.8107 51.4588L47.7872 51.6179C47.785 51.6327 47.7823 51.6476 47.7792 51.6621L47.7444 51.8191C47.7413 51.8338 47.7376 51.8483 47.7335 51.8627L47.6876 52.0167C47.6835 52.0311 47.6785 52.0453 47.6733 52.0593L47.6168 52.2097C47.6114 52.2238 47.6058 52.2376 47.5998 52.2513L47.5323 52.3973C47.5262 52.4109 47.5194 52.4243 47.5123 52.4373L47.4349 52.5783C47.4278 52.5913 47.4198 52.6042 47.4119 52.6169L47.3247 52.7517C47.3164 52.7643 47.3081 52.7767 47.299 52.7885L47.2025 52.917C47.1933 52.9289 47.1839 52.9406 47.1744 52.9519L47.0688 53.0729C47.0588 53.0842 47.0486 53.0952 47.0381 53.1057L46.9245 53.2191C46.9139 53.2296 46.9029 53.2399 46.8915 53.2495L46.7699 53.3544C46.7593 53.3635 46.7487 53.3722 46.7374 53.3805L46.6274 53.4633C46.6172 53.471 46.607 53.4784 46.5961 53.4856L46.4813 53.5614C46.4707 53.5683 46.4597 53.5752 46.4487 53.5816L46.3295 53.6503C46.3185 53.6566 46.3074 53.6627 46.2957 53.6684L46.1726 53.7296C46.1612 53.7353 46.1495 53.7406 46.1377 53.7457L46.0112 53.7992C45.9991 53.8043 45.9874 53.8089 45.9753 53.8132L45.8458 53.8589C45.8337 53.863 45.8211 53.867 45.809 53.8704L45.6768 53.9081C45.6643 53.9117 45.6518 53.9148 45.6397 53.9175L45.5052 53.947C45.4928 53.9498 45.4802 53.952 45.4673 53.9541L45.3318 53.9753C45.3193 53.9773 45.3064 53.9789 45.2935 53.9801L45.1568 53.9928C45.1439 53.994 45.1314 53.9949 45.1185 53.9952L44.981 53.9997C44.9682 54.0001 44.9553 54.0001 44.9424 53.9997L44.8053 53.9957C44.4588 53.9854 44.1857 53.6954 44.1959 53.3477C44.2061 53.0001 44.4955 52.7265 44.8421 52.7367Z"/>
<path d="M17.5538 50.2308L17.5504 50.4373L17.5495 50.3939L17.5603 50.6001L17.5566 50.5568L17.5816 50.7618L17.5748 50.7188L17.6139 50.9218L17.6043 50.8792L17.6572 51.0789L17.6447 51.0372L17.7112 51.2327L17.6957 51.1921L17.7757 51.3825L17.7574 51.343L17.8503 51.5274L17.8295 51.4891L17.9348 51.6667L17.9113 51.6301L18.0287 51.8L18.0027 51.7649L18.1316 51.9262L18.1032 51.8933L18.2428 52.0452L18.2123 52.0142L18.3621 52.156L18.3295 52.1273L18.4887 52.2586L18.4559 52.2334L18.6065 52.3417L18.5741 52.3199L18.7311 52.4185L18.6973 52.3986L18.8602 52.4874L18.8253 52.4699L18.9934 52.5482L18.9574 52.5328L19.1299 52.6006L19.0931 52.5874L19.2696 52.6443L19.232 52.6335L19.4116 52.6792L19.3735 52.6707L19.5556 52.7052L19.517 52.6991L19.7009 52.7222L19.662 52.7185L19.8469 52.7301L19.8078 52.7289L19.9932 52.7288C20.34 52.7288 20.6211 53.0107 20.6213 53.3584C20.6213 53.7062 20.3402 53.9883 19.9934 53.9883H19.8081C19.7951 53.9883 19.782 53.988 19.7691 53.9871L19.584 53.9757C19.571 53.9748 19.5581 53.9736 19.5451 53.9719L19.3613 53.949C19.3483 53.9473 19.3354 53.9452 19.3227 53.9429L19.1406 53.9084C19.1277 53.9059 19.115 53.9031 19.1024 53.9L18.9228 53.8541C18.9102 53.8509 18.8977 53.8473 18.8852 53.8433L18.7089 53.7865C18.6964 53.7825 18.6842 53.778 18.672 53.7733L18.4994 53.7055C18.4872 53.7007 18.4753 53.6957 18.4636 53.6902L18.2955 53.6117C18.2837 53.6062 18.2721 53.6004 18.2606 53.5941L18.0978 53.5053C18.0863 53.4991 18.0751 53.4926 18.064 53.4856L17.907 53.3869C17.896 53.38 17.8851 53.3727 17.8746 53.3651L17.724 53.2568C17.7127 53.2486 17.7019 53.2403 17.6913 53.2316L17.5321 53.1004C17.5208 53.0911 17.51 53.0816 17.4995 53.0715L17.3497 52.9296C17.3391 52.9196 17.3289 52.9093 17.3192 52.8986L17.1795 52.7467C17.1697 52.736 17.1603 52.7249 17.1512 52.7136L17.0224 52.5523C17.0134 52.5409 17.0048 52.5294 16.9965 52.5173L16.8792 52.3476C16.8709 52.3356 16.863 52.3234 16.8556 52.3109L16.7502 52.1334C16.7428 52.1209 16.7358 52.1081 16.7293 52.0952L16.6364 51.9108C16.6299 51.8977 16.6238 51.8845 16.6182 51.8712L16.5383 51.6807C16.5327 51.6673 16.5275 51.6538 16.5228 51.64L16.4562 51.4445C16.4514 51.4307 16.4473 51.4169 16.4435 51.4028L16.3905 51.2031C16.3868 51.1891 16.3835 51.1749 16.3809 51.1606L16.3418 50.9578C16.339 50.9434 16.3368 50.9292 16.335 50.9148L16.31 50.7096C16.3082 50.6952 16.3069 50.6807 16.3062 50.6663L16.2954 50.4599C16.2946 50.4453 16.2943 50.4308 16.2946 50.4163L16.298 50.2097C16.3039 49.862 16.5898 49.5848 16.9364 49.5906C17.2832 49.5964 17.5596 49.883 17.5538 50.2308Z"/>
<path d="M11.9233 49.5034L11.9261 49.6179L11.9238 49.5758L11.9343 49.6899L11.929 49.6481L11.9471 49.7613L11.939 49.7199L11.9648 49.8316L11.9538 49.7908L11.9869 49.9006L11.9733 49.8605L12.0137 49.9678L11.9976 49.9288L12.0451 50.0331L12.0263 49.9952L12.0806 50.0961L12.0593 50.0596L12.1202 50.1567L12.0966 50.1218L12.1639 50.2145L12.138 50.1811L12.2114 50.2691L12.1833 50.2377L12.2623 50.3205L12.2322 50.2909L12.3166 50.3682L12.2851 50.3412L12.3721 50.411L12.3392 50.3863L12.4306 50.4501L12.3962 50.4277L12.4916 50.4855L12.4558 50.4654L12.5548 50.5168L12.5176 50.4991L12.6199 50.5438L12.5817 50.5286L12.6865 50.5666L12.6474 50.5539L12.7545 50.5849L12.7147 50.5748L12.8236 50.5987L12.7832 50.5911L12.8934 50.6079L12.8526 50.6031L12.9637 50.6126L12.9226 50.6104L13.0341 50.6126C13.3808 50.6194 13.6564 50.9068 13.6496 51.2546C13.6428 51.6022 13.3562 51.8786 13.0094 51.8718L12.898 51.8696C12.8843 51.8694 12.8707 51.8687 12.857 51.8675L12.7459 51.858C12.7323 51.8568 12.7187 51.8552 12.7051 51.8531L12.595 51.8364C12.5814 51.8344 12.5679 51.8319 12.5546 51.8289L12.4457 51.8051C12.4323 51.8021 12.419 51.7987 12.4058 51.7948L12.2988 51.7638C12.2857 51.7599 12.2726 51.7558 12.2598 51.751L12.1549 51.7131C12.142 51.7085 12.1293 51.7033 12.1167 51.6978L12.0146 51.6531C12.002 51.6475 11.9896 51.6417 11.9775 51.6353L11.8785 51.584C11.8664 51.5776 11.8544 51.5709 11.8427 51.5638L11.7473 51.5061C11.7354 51.499 11.724 51.4916 11.7128 51.4837L11.6214 51.4197C11.6101 51.4119 11.599 51.4037 11.5884 51.3951L11.5012 51.3254C11.4904 51.3166 11.4799 51.3076 11.4697 51.2982L11.3852 51.2209C11.3749 51.2114 11.3648 51.2015 11.3551 51.1914L11.276 51.1085C11.2663 51.0984 11.257 51.0878 11.2479 51.077L11.1746 50.989C11.1655 50.9782 11.1568 50.9671 11.1485 50.9556L11.0813 50.8631C11.0731 50.8516 11.0651 50.8399 11.0577 50.828L10.9967 50.731C10.9892 50.719 10.9821 50.7068 10.9754 50.6945L10.9211 50.5935C10.9145 50.5812 10.9081 50.5685 10.9023 50.5556L10.8548 50.4513C10.8491 50.4386 10.8436 50.4255 10.8387 50.4123L10.7983 50.305C10.7934 50.2918 10.7888 50.2785 10.7847 50.265L10.7517 50.1552C10.7476 50.1417 10.744 50.128 10.7409 50.1144L10.7152 50.0027C10.7121 49.9889 10.7092 49.9751 10.707 49.9611L10.689 49.8479C10.6868 49.834 10.685 49.82 10.6837 49.8059L10.6732 49.6918C10.6718 49.6777 10.6709 49.6636 10.6706 49.6495L10.6678 49.5348C10.6591 49.1872 10.9331 48.8983 11.2799 48.8896C11.6265 48.8808 11.9146 49.1556 11.9233 49.5034Z"/>
<path d="M24.3831 30.1902L38.3392 15.7519C38.5808 15.5023 38.9782 15.4959 39.2271 15.7382C39.4762 15.9802 39.4823 16.3786 39.241 16.6284L25.2848 31.0669C25.0434 31.3168 24.6458 31.3228 24.3968 31.0806C24.1478 30.8386 24.1416 30.4402 24.3831 30.1902Z"/>
<path d="M31.4934 28.7575L36.9322 23.0085C37.1708 22.7562 37.5685 22.746 37.8201 22.9853C38.0716 23.2246 38.0821 23.6235 37.8431 23.8757L32.4042 29.6243C32.1657 29.877 31.7683 29.8875 31.5165 29.6479C31.265 29.4086 31.2548 29.0097 31.4934 28.7575Z"/>
</mask>
<path d="M19.7749 52.7205L44.9186 52.7394C45.2651 52.7397 45.5462 53.0217 45.5458 53.3695C45.5458 53.7174 45.2644 53.999 44.9174 53.9989L19.774 53.98C19.4272 53.9797 19.1463 53.6975 19.1466 53.3497C19.1467 53.002 19.4281 52.7202 19.7749 52.7205Z" fill="#32798F"/>
<path d="M11.9401 11.8772L11.9139 49.4961C11.9137 49.8439 11.6323 50.1257 11.2855 50.1254C10.9387 50.1252 10.6578 49.843 10.6581 49.4952L10.6841 11.8765C10.6844 11.5286 10.9658 11.2468 11.3126 11.2471C11.6594 11.2476 11.9404 11.5298 11.9401 11.8772Z" fill="#32798F"/>
<path d="M11.4642 43.1134L16.8629 43.1162C17.2097 43.1165 17.4907 43.3986 17.4905 43.7463C17.4902 44.0941 17.209 44.3759 16.8622 44.3757L11.4636 44.3729C11.1168 44.3728 10.8359 44.0906 10.836 43.7428C10.8362 43.395 11.1174 43.1133 11.4642 43.1134Z" fill="#32798F"/>
<path d="M17.5774 5.89419L17.5503 50.2618C17.55 50.6098 17.2688 50.8915 16.922 50.8912C16.5752 50.8911 16.2942 50.6089 16.2944 50.2611L16.3214 5.89345C16.3217 5.54552 16.603 5.26376 16.9498 5.26406C17.2966 5.26451 17.5777 5.54626 17.5774 5.89419Z" fill="#32798F"/>
<path d="M16.8279 8.24986L2.25595 8.29245L2.25595 8.29069L2.25609 10.7382L16.7591 10.7462C17.1059 10.7465 17.3868 11.0287 17.3867 11.3766C17.3865 11.7242 17.1051 12.006 16.7583 12.0057L1.62775 11.9977C1.28111 11.9972 1.00015 11.7155 1.00015 11.3679L1 7.66276C1 7.31558 1.28007 7.03368 1.62613 7.03293L16.8243 6.9908C17.1711 6.98961 17.4531 7.27077 17.454 7.6187C17.455 7.96618 17.1747 8.24912 16.8279 8.24986Z" fill="#32798F"/>
<path d="M16.3766 1.00704L43.449 1.02633C43.7959 1.02677 44.0766 1.30853 44.0766 1.65646C44.0762 2.00438 43.7948 2.28629 43.4478 2.28584L16.3757 2.26655C16.0288 2.26611 15.748 1.98391 15.7481 1.63598C15.7484 1.2885 16.0298 1.0066 16.3766 1.00704Z" fill="#32798F"/>
<path d="M47.4058 6.92698L56.928 6.89166C57.2735 6.89048 57.5549 7.16926 57.5583 7.51571L57.5932 11.4416C57.5947 11.6098 57.5291 11.7717 57.4106 11.8913C57.2924 12.0106 57.1314 12.0775 56.9637 12.077L47.2812 12.0532C46.9347 12.0527 46.6541 11.7698 46.6551 11.4223C46.6558 11.0744 46.9377 10.7929 47.2846 10.7939L56.9666 10.8175L56.3372 10.816L56.3023 8.15351L56.3023 8.15118L47.4104 8.18649C47.0639 8.18797 46.7816 7.90696 46.7801 7.55933C46.7789 7.2114 47.0593 6.92846 47.4058 6.92698Z" fill="#32798F"/>
<path d="M47.8421 5.40237L47.8413 50.9874C47.841 51.3352 47.5599 51.6172 47.213 51.6172C46.8665 51.6172 46.5851 51.3352 46.5851 50.9874L46.5861 5.40237C46.5861 5.05444 46.8672 4.77269 47.2142 4.77269C47.5611 4.77269 47.8421 5.05444 47.8421 5.40237Z" fill="#32798F"/>
<path d="M17.0176 41.1307L46.882 41.1622C47.229 41.1625 47.5097 41.4447 47.5092 41.7926C47.5092 42.1404 47.2275 42.422 46.8809 42.4217L17.0162 42.3903C16.6694 42.3898 16.3886 42.1076 16.3889 41.7598C16.3894 41.412 16.6708 41.1303 17.0176 41.1307Z" fill="#32798F"/>
<path d="M17.0523 45.0182L46.9058 44.948C47.2528 44.9471 47.5346 45.2284 47.5353 45.5762C47.5361 45.924 47.2554 46.2066 46.9089 46.2075L17.0552 46.2777C16.7084 46.2786 16.4266 45.9973 16.4257 45.6495C16.425 45.3017 16.7055 45.0191 17.0523 45.0182Z" fill="#32798F"/>
<path d="M16.3959 40.6368L11.4671 40.6632C11.1203 40.6651 10.8377 40.3847 10.8358 40.0369C10.834 39.689 11.1136 39.4056 11.4604 39.4038L16.3892 39.3773C16.736 39.3755 17.0186 39.6559 17.0205 40.0037C17.0223 40.3515 16.7427 40.635 16.3959 40.6368Z" fill="#32798F"/>
<path d="M12.9218 50.6158L16.8222 50.6407C17.169 50.6429 17.4484 50.9268 17.4463 51.2745C17.4441 51.6223 17.1611 51.9024 16.8143 51.9002L12.9138 51.8753C12.5671 51.8731 12.2876 51.5894 12.2898 51.2415C12.292 50.8937 12.575 50.6136 12.9218 50.6158Z" fill="#32798F"/>
<path d="M10.5527 7.17727L10.5315 6.79596C10.5306 6.78038 10.5303 6.76436 10.5306 6.74849L10.5385 6.36673C10.5388 6.35071 10.5397 6.33483 10.5411 6.31925L10.5777 5.93898C10.5792 5.9231 10.5812 5.90752 10.584 5.8915L10.6491 5.51553C10.6518 5.49995 10.6551 5.48437 10.6589 5.46879L10.7523 5.09846C10.7561 5.08333 10.7605 5.06775 10.7656 5.05291L10.8866 4.69089C10.8916 4.67576 10.8971 4.66092 10.9033 4.64608L11.0513 4.29445C11.0573 4.27961 11.0641 4.26551 11.0714 4.25112L11.2454 3.9115C11.2526 3.89741 11.2603 3.88346 11.2686 3.87011L11.4677 3.54458C11.476 3.53093 11.4849 3.51758 11.4942 3.50467L11.7173 3.19562C11.7267 3.18256 11.7364 3.1701 11.7466 3.15793L11.9924 2.86624C12.0027 2.85407 12.0134 2.84235 12.0245 2.83093L12.2917 2.55896C12.3028 2.54754 12.3143 2.53656 12.3262 2.52632L12.6132 2.27528C12.625 2.2646 12.6374 2.25466 12.6502 2.24516L12.9551 2.01652C12.9678 2.00703 12.9808 1.99798 12.9943 1.98967L13.3156 1.78492C13.3273 1.7772 13.3393 1.77008 13.3514 1.76355L13.603 1.62572C13.6135 1.62008 13.6241 1.61474 13.6349 1.60984L13.8938 1.48669C13.9046 1.48135 13.9156 1.47646 13.9265 1.4723L14.1921 1.36399C14.2032 1.35939 14.2143 1.35524 14.2255 1.35153L14.4967 1.2588C14.5081 1.25464 14.5195 1.25123 14.5309 1.24811L14.807 1.17111C14.8185 1.1677 14.8301 1.16503 14.8418 1.16236L15.1217 1.10123C15.1334 1.09856 15.1451 1.09618 15.1569 1.0944L15.4399 1.04915C15.4516 1.04722 15.4634 1.04574 15.4753 1.04455L15.7604 1.01577C15.7724 1.01458 15.7842 1.01384 15.7962 1.0131L16.0823 1.00049C16.0943 1.00019 16.1063 0.999743 16.1181 1.00019L16.4047 1.0036C16.7515 1.0085 17.0289 1.29411 17.0243 1.64204C17.0197 1.98967 16.7349 2.26756 16.3881 2.26311L16.1015 2.25926L16.1374 2.25896L15.8511 2.27142L15.8867 2.26875L15.6016 2.29768L15.6371 2.29308L15.3541 2.33834L15.3893 2.33181L15.1094 2.39264L15.1442 2.38418L14.8681 2.46134L14.9023 2.45065L14.6311 2.54338L14.6645 2.53092L14.3991 2.63908L14.4318 2.62469L14.1729 2.74769L14.2048 2.73137L13.9533 2.86891L13.9891 2.84799L13.6678 3.05274L13.707 3.02544L13.4019 3.25408L13.4389 3.22411L13.152 3.47515L13.1866 3.44251L12.9194 3.71477L12.9515 3.67945L12.7056 3.97115L12.7349 3.93361L12.5118 4.24311L12.5383 4.2032L12.3392 4.52872L12.3624 4.48733L12.1884 4.82695L12.2085 4.78362L12.0606 5.13526L12.0775 5.0909L11.9564 5.45292L11.9699 5.40692L11.8767 5.77726L11.8866 5.73052L11.8215 6.10693L11.8279 6.05975L11.7913 6.43958L11.7941 6.3921L11.7863 6.77386L11.7855 6.72608L11.8067 7.10739C11.8259 7.45487 11.5607 7.75191 11.2145 7.77135C10.8681 7.79034 10.5719 7.52446 10.5527 7.17727Z" fill="#32798F"/>
<path d="M43.605 1.03168L43.8466 1.03553C43.861 1.03583 43.8751 1.03628 43.8894 1.03776L44.13 1.05794C44.1443 1.05913 44.1584 1.06061 44.1724 1.06283L44.4114 1.09933C44.4254 1.10156 44.4393 1.10423 44.4534 1.10735L44.6889 1.16002C44.703 1.16313 44.7166 1.16699 44.7302 1.17114L44.962 1.23984C44.9757 1.2437 44.989 1.24859 45.0026 1.25319L45.2291 1.33791C45.2424 1.34281 45.2556 1.34815 45.2685 1.35423L45.4886 1.45409C45.5018 1.45972 45.5143 1.46625 45.5268 1.47308L45.7397 1.58732C45.7521 1.5943 45.7647 1.60142 45.7768 1.60898L45.9813 1.73777C45.9934 1.74534 46.0051 1.75335 46.0165 1.7621L46.2119 1.90454C46.2233 1.91285 46.2347 1.9216 46.2457 1.9308L46.4309 2.08644C46.4418 2.09564 46.4525 2.10513 46.4627 2.11537L46.6368 2.28288C46.6472 2.29312 46.657 2.30336 46.6664 2.31359L46.8289 2.49327C46.8384 2.50351 46.8475 2.51449 46.8565 2.52591L47.0061 2.71582C47.0149 2.72651 47.0228 2.73793 47.0308 2.74936L47.1573 2.93348C47.1649 2.94446 47.1721 2.95559 47.1789 2.96687L47.2937 3.15915C47.3005 3.17013 47.3069 3.18185 47.313 3.19372L47.4157 3.39269C47.4217 3.40411 47.427 3.41628 47.4327 3.42844L47.5225 3.63319C47.5278 3.64566 47.5327 3.65782 47.5373 3.67044L47.6138 3.88038C47.6182 3.89299 47.6225 3.90545 47.6262 3.91807L47.6898 4.13305C47.6932 4.14552 47.6966 4.15842 47.6997 4.17133L47.7493 4.38973C47.7524 4.40234 47.7551 4.41525 47.7568 4.42846L47.7929 4.64953C47.7951 4.66244 47.7966 4.67579 47.7981 4.6887L47.8201 4.9117C47.8213 4.9249 47.8224 4.93826 47.8228 4.95116L47.8308 5.17491C47.8311 5.18811 47.8311 5.20146 47.8308 5.21467L47.8247 5.43841C47.8153 5.78604 47.5262 6.06023 47.1797 6.05073C46.8327 6.04124 46.5596 5.75147 46.5691 5.40384L46.5751 5.18025L46.5756 5.21971L46.5676 4.99597L46.5703 5.03544L46.5482 4.81288L46.5535 4.85205L46.5176 4.63128L46.5251 4.67L46.4751 4.45205L46.4853 4.49048L46.4222 4.27578L46.4343 4.31347L46.3578 4.10293L46.3726 4.13988L46.2828 3.93513L46.2998 3.97074L46.1971 3.77177L46.2165 3.80634L46.1017 3.6145L46.1233 3.64788L45.9965 3.46376L46.0211 3.49684L45.8711 3.30693L45.8987 3.33957L45.7366 3.16019L45.7666 3.19105L45.5923 3.0231L45.6241 3.05203L45.4393 2.89624L45.4731 2.9228L45.2776 2.78036L45.3131 2.8044L45.1087 2.67562L45.1458 2.69728L44.9329 2.58259L44.9712 2.60158L44.7511 2.50202L44.7909 2.51834L44.5644 2.43362L44.6053 2.44727L44.3735 2.37858L44.4152 2.38926L44.1792 2.33674L44.2216 2.34445L43.9826 2.30795L44.0254 2.31285L43.7845 2.29267L43.8273 2.29505L43.5861 2.29119C43.2392 2.28585 42.9622 1.99949 42.9675 1.65201C42.9729 1.30408 43.2584 1.02678 43.605 1.03168Z" fill="#32798F"/>
<path d="M44.8421 52.7367L44.9796 52.7407L44.9412 52.7409L45.0784 52.7364L45.0402 52.7388L45.1769 52.7261L45.1386 52.7308L45.2746 52.7096L45.2367 52.7167L45.3707 52.6872L45.3338 52.6965L45.4659 52.659L45.4292 52.6706L45.5586 52.6249L45.5231 52.6388L45.6496 52.5853L45.6147 52.6013L45.7378 52.54L45.7038 52.5583L45.823 52.4896L45.79 52.5097L45.9048 52.4339L45.8735 52.4562L45.9832 52.3734L45.951 52.3995L46.0726 52.2947L46.0396 52.3253L46.1532 52.212L46.1226 52.2447L46.2283 52.1237L46.1999 52.1585L46.2965 52.0302L46.2707 52.067L46.3579 51.9321L46.3348 51.9707L46.412 51.8299L46.3919 51.87L46.4589 51.724L46.4416 51.7655L46.4984 51.6151L46.4839 51.6576L46.5298 51.5036L46.5184 51.5471L46.5529 51.3901L46.5449 51.4343L46.5684 51.2753L46.5631 51.32L46.5752 51.1597L46.5737 51.2047L46.5742 51.0438C46.5752 50.6961 46.8573 50.4151 47.2043 50.4162C47.5509 50.4174 47.8312 50.7004 47.83 51.0481L47.8292 51.209C47.8292 51.224 47.8289 51.2389 47.8277 51.2538L47.8156 51.4142C47.8146 51.4292 47.813 51.444 47.8107 51.4588L47.7872 51.6179C47.785 51.6327 47.7823 51.6476 47.7792 51.6621L47.7444 51.8191C47.7413 51.8338 47.7376 51.8483 47.7335 51.8627L47.6876 52.0167C47.6835 52.0311 47.6785 52.0453 47.6733 52.0593L47.6168 52.2097C47.6114 52.2238 47.6058 52.2376 47.5998 52.2513L47.5323 52.3973C47.5262 52.4109 47.5194 52.4243 47.5123 52.4373L47.4349 52.5783C47.4278 52.5913 47.4198 52.6042 47.4119 52.6169L47.3247 52.7517C47.3164 52.7643 47.3081 52.7767 47.299 52.7885L47.2025 52.917C47.1933 52.9289 47.1839 52.9406 47.1744 52.9519L47.0688 53.0729C47.0588 53.0842 47.0486 53.0952 47.0381 53.1057L46.9245 53.2191C46.9139 53.2296 46.9029 53.2399 46.8915 53.2495L46.7699 53.3544C46.7593 53.3635 46.7487 53.3722 46.7374 53.3805L46.6274 53.4633C46.6172 53.471 46.607 53.4784 46.5961 53.4856L46.4813 53.5614C46.4707 53.5683 46.4597 53.5752 46.4487 53.5816L46.3295 53.6503C46.3185 53.6566 46.3074 53.6627 46.2957 53.6684L46.1726 53.7296C46.1612 53.7353 46.1495 53.7406 46.1377 53.7457L46.0112 53.7992C45.9991 53.8043 45.9874 53.8089 45.9753 53.8132L45.8458 53.8589C45.8337 53.863 45.8211 53.867 45.809 53.8704L45.6768 53.9081C45.6643 53.9117 45.6518 53.9148 45.6397 53.9175L45.5052 53.947C45.4928 53.9498 45.4802 53.952 45.4673 53.9541L45.3318 53.9753C45.3193 53.9773 45.3064 53.9789 45.2935 53.9801L45.1568 53.9928C45.1439 53.994 45.1314 53.9949 45.1185 53.9952L44.981 53.9997C44.9682 54.0001 44.9553 54.0001 44.9424 53.9997L44.8053 53.9957C44.4588 53.9854 44.1857 53.6954 44.1959 53.3477C44.2061 53.0001 44.4955 52.7265 44.8421 52.7367Z" fill="#32798F"/>
<path d="M17.5538 50.2308L17.5504 50.4373L17.5495 50.3939L17.5603 50.6001L17.5566 50.5568L17.5816 50.7618L17.5748 50.7188L17.6139 50.9218L17.6043 50.8792L17.6572 51.0789L17.6447 51.0372L17.7112 51.2327L17.6957 51.1921L17.7757 51.3825L17.7574 51.343L17.8503 51.5274L17.8295 51.4891L17.9348 51.6667L17.9113 51.6301L18.0287 51.8L18.0027 51.7649L18.1316 51.9262L18.1032 51.8933L18.2428 52.0452L18.2123 52.0142L18.3621 52.156L18.3295 52.1273L18.4887 52.2586L18.4559 52.2334L18.6065 52.3417L18.5741 52.3199L18.7311 52.4185L18.6973 52.3986L18.8602 52.4874L18.8253 52.4699L18.9934 52.5482L18.9574 52.5328L19.1299 52.6006L19.0931 52.5874L19.2696 52.6443L19.232 52.6335L19.4116 52.6792L19.3735 52.6707L19.5556 52.7052L19.517 52.6991L19.7009 52.7222L19.662 52.7185L19.8469 52.7301L19.8078 52.7289L19.9932 52.7288C20.34 52.7288 20.6211 53.0107 20.6213 53.3584C20.6213 53.7062 20.3402 53.9883 19.9934 53.9883H19.8081C19.7951 53.9883 19.782 53.988 19.7691 53.9871L19.584 53.9757C19.571 53.9748 19.5581 53.9736 19.5451 53.9719L19.3613 53.949C19.3483 53.9473 19.3354 53.9452 19.3227 53.9429L19.1406 53.9084C19.1277 53.9059 19.115 53.9031 19.1024 53.9L18.9228 53.8541C18.9102 53.8509 18.8977 53.8473 18.8852 53.8433L18.7089 53.7865C18.6964 53.7825 18.6842 53.778 18.672 53.7733L18.4994 53.7055C18.4872 53.7007 18.4753 53.6957 18.4636 53.6902L18.2955 53.6117C18.2837 53.6062 18.2721 53.6004 18.2606 53.5941L18.0978 53.5053C18.0863 53.4991 18.0751 53.4926 18.064 53.4856L17.907 53.3869C17.896 53.38 17.8851 53.3727 17.8746 53.3651L17.724 53.2568C17.7127 53.2486 17.7019 53.2403 17.6913 53.2316L17.5321 53.1004C17.5208 53.0911 17.51 53.0816 17.4995 53.0715L17.3497 52.9296C17.3391 52.9196 17.3289 52.9093 17.3192 52.8986L17.1795 52.7467C17.1697 52.736 17.1603 52.7249 17.1512 52.7136L17.0224 52.5523C17.0134 52.5409 17.0048 52.5294 16.9965 52.5173L16.8792 52.3476C16.8709 52.3356 16.863 52.3234 16.8556 52.3109L16.7502 52.1334C16.7428 52.1209 16.7358 52.1081 16.7293 52.0952L16.6364 51.9108C16.6299 51.8977 16.6238 51.8845 16.6182 51.8712L16.5383 51.6807C16.5327 51.6673 16.5275 51.6538 16.5228 51.64L16.4562 51.4445C16.4514 51.4307 16.4473 51.4169 16.4435 51.4028L16.3905 51.2031C16.3868 51.1891 16.3835 51.1749 16.3809 51.1606L16.3418 50.9578C16.339 50.9434 16.3368 50.9292 16.335 50.9148L16.31 50.7096C16.3082 50.6952 16.3069 50.6807 16.3062 50.6663L16.2954 50.4599C16.2946 50.4453 16.2943 50.4308 16.2946 50.4163L16.298 50.2097C16.3039 49.862 16.5898 49.5848 16.9364 49.5906C17.2832 49.5964 17.5596 49.883 17.5538 50.2308Z" fill="#32798F"/>
<path d="M11.9233 49.5034L11.9261 49.6179L11.9238 49.5758L11.9343 49.6899L11.929 49.6481L11.9471 49.7613L11.939 49.7199L11.9648 49.8316L11.9538 49.7908L11.9869 49.9006L11.9733 49.8605L12.0137 49.9678L11.9976 49.9288L12.0451 50.0331L12.0263 49.9952L12.0806 50.0961L12.0593 50.0596L12.1202 50.1567L12.0966 50.1218L12.1639 50.2145L12.138 50.1811L12.2114 50.2691L12.1833 50.2377L12.2623 50.3205L12.2322 50.2909L12.3166 50.3682L12.2851 50.3412L12.3721 50.411L12.3392 50.3863L12.4306 50.4501L12.3962 50.4277L12.4916 50.4855L12.4558 50.4654L12.5548 50.5168L12.5176 50.4991L12.6199 50.5438L12.5817 50.5286L12.6865 50.5666L12.6474 50.5539L12.7545 50.5849L12.7147 50.5748L12.8236 50.5987L12.7832 50.5911L12.8934 50.6079L12.8526 50.6031L12.9637 50.6126L12.9226 50.6104L13.0341 50.6126C13.3808 50.6194 13.6564 50.9068 13.6496 51.2546C13.6428 51.6022 13.3562 51.8786 13.0094 51.8718L12.898 51.8696C12.8843 51.8694 12.8707 51.8687 12.857 51.8675L12.7459 51.858C12.7323 51.8568 12.7187 51.8552 12.7051 51.8531L12.595 51.8364C12.5814 51.8344 12.5679 51.8319 12.5546 51.8289L12.4457 51.8051C12.4323 51.8021 12.419 51.7987 12.4058 51.7948L12.2988 51.7638C12.2857 51.7599 12.2726 51.7558 12.2598 51.751L12.1549 51.7131C12.142 51.7085 12.1293 51.7033 12.1167 51.6978L12.0146 51.6531C12.002 51.6475 11.9896 51.6417 11.9775 51.6353L11.8785 51.584C11.8664 51.5776 11.8544 51.5709 11.8427 51.5638L11.7473 51.5061C11.7354 51.499 11.724 51.4916 11.7128 51.4837L11.6214 51.4197C11.6101 51.4119 11.599 51.4037 11.5884 51.3951L11.5012 51.3254C11.4904 51.3166 11.4799 51.3076 11.4697 51.2982L11.3852 51.2209C11.3749 51.2114 11.3648 51.2015 11.3551 51.1914L11.276 51.1085C11.2663 51.0984 11.257 51.0878 11.2479 51.077L11.1746 50.989C11.1655 50.9782 11.1568 50.9671 11.1485 50.9556L11.0813 50.8631C11.0731 50.8516 11.0651 50.8399 11.0577 50.828L10.9967 50.731C10.9892 50.719 10.9821 50.7068 10.9754 50.6945L10.9211 50.5935C10.9145 50.5812 10.9081 50.5685 10.9023 50.5556L10.8548 50.4513C10.8491 50.4386 10.8436 50.4255 10.8387 50.4123L10.7983 50.305C10.7934 50.2918 10.7888 50.2785 10.7847 50.265L10.7517 50.1552C10.7476 50.1417 10.744 50.128 10.7409 50.1144L10.7152 50.0027C10.7121 49.9889 10.7092 49.9751 10.707 49.9611L10.689 49.8479C10.6868 49.834 10.685 49.82 10.6837 49.8059L10.6732 49.6918C10.6718 49.6777 10.6709 49.6636 10.6706 49.6495L10.6678 49.5348C10.6591 49.1872 10.9331 48.8983 11.2799 48.8896C11.6265 48.8808 11.9146 49.1556 11.9233 49.5034Z" fill="#32798F"/>
<path d="M24.3831 30.1902L38.3392 15.7519C38.5808 15.5023 38.9782 15.4959 39.2271 15.7382C39.4762 15.9802 39.4823 16.3786 39.241 16.6284L25.2848 31.0669C25.0434 31.3168 24.6458 31.3228 24.3968 31.0806C24.1478 30.8386 24.1416 30.4402 24.3831 30.1902Z" fill="#32798F"/>
<path d="M31.4934 28.7575L36.9322 23.0085C37.1708 22.7562 37.5685 22.746 37.8201 22.9853C38.0716 23.2246 38.0821 23.6235 37.8431 23.8757L32.4042 29.6243C32.1657 29.877 31.7683 29.8875 31.5165 29.6479C31.265 29.4086 31.2548 29.0097 31.4934 28.7575Z" fill="#32798F"/>
<path d="M19.7749 52.7205L44.9186 52.7394C45.2651 52.7397 45.5462 53.0217 45.5458 53.3695C45.5458 53.7174 45.2644 53.999 44.9174 53.9989L19.774 53.98C19.4272 53.9797 19.1463 53.6975 19.1466 53.3497C19.1467 53.002 19.4281 52.7202 19.7749 52.7205Z" stroke="#32798F" stroke-width="2" mask="url(#path-1-outside-1_171_406)"/>
<path d="M11.9401 11.8772L11.9139 49.4961C11.9137 49.8439 11.6323 50.1257 11.2855 50.1254C10.9387 50.1252 10.6578 49.843 10.6581 49.4952L10.6841 11.8765C10.6844 11.5286 10.9658 11.2468 11.3126 11.2471C11.6594 11.2476 11.9404 11.5298 11.9401 11.8772Z" stroke="#32798F" stroke-width="2" mask="url(#path-1-outside-1_171_406)"/>
<path d="M11.4642 43.1134L16.8629 43.1162C17.2097 43.1165 17.4907 43.3986 17.4905 43.7463C17.4902 44.0941 17.209 44.3759 16.8622 44.3757L11.4636 44.3729C11.1168 44.3728 10.8359 44.0906 10.836 43.7428C10.8362 43.395 11.1174 43.1133 11.4642 43.1134Z" stroke="#32798F" stroke-width="2" mask="url(#path-1-outside-1_171_406)"/>
<path d="M17.5774 5.89419L17.5503 50.2618C17.55 50.6098 17.2688 50.8915 16.922 50.8912C16.5752 50.8911 16.2942 50.6089 16.2944 50.2611L16.3214 5.89345C16.3217 5.54552 16.603 5.26376 16.9498 5.26406C17.2966 5.26451 17.5777 5.54626 17.5774 5.89419Z" stroke="#32798F" stroke-width="2" mask="url(#path-1-outside-1_171_406)"/>
<path d="M16.8279 8.24986L2.25595 8.29245L2.25595 8.29069L2.25609 10.7382L16.7591 10.7462C17.1059 10.7465 17.3868 11.0287 17.3867 11.3766C17.3865 11.7242 17.1051 12.006 16.7583 12.0057L1.62775 11.9977C1.28111 11.9972 1.00015 11.7155 1.00015 11.3679L1 7.66276C1 7.31558 1.28007 7.03368 1.62613 7.03293L16.8243 6.9908C17.1711 6.98961 17.4531 7.27077 17.454 7.6187C17.455 7.96618 17.1747 8.24912 16.8279 8.24986Z" stroke="#32798F" stroke-width="2" mask="url(#path-1-outside-1_171_406)"/>
<path d="M16.3766 1.00704L43.449 1.02633C43.7959 1.02677 44.0766 1.30853 44.0766 1.65646C44.0762 2.00438 43.7948 2.28629 43.4478 2.28584L16.3757 2.26655C16.0288 2.26611 15.748 1.98391 15.7481 1.63598C15.7484 1.2885 16.0298 1.0066 16.3766 1.00704Z" stroke="#32798F" stroke-width="2" mask="url(#path-1-outside-1_171_406)"/>
<path d="M47.4058 6.92698L56.928 6.89166C57.2735 6.89048 57.5549 7.16926 57.5583 7.51571L57.5932 11.4416C57.5947 11.6098 57.5291 11.7717 57.4106 11.8913C57.2924 12.0106 57.1314 12.0775 56.9637 12.077L47.2812 12.0532C46.9347 12.0527 46.6541 11.7698 46.6551 11.4223C46.6558 11.0744 46.9377 10.7929 47.2846 10.7939L56.9666 10.8175L56.3372 10.816L56.3023 8.15351L56.3023 8.15118L47.4104 8.18649C47.0639 8.18797 46.7816 7.90696 46.7801 7.55933C46.7789 7.2114 47.0593 6.92846 47.4058 6.92698Z" stroke="#32798F" stroke-width="2" mask="url(#path-1-outside-1_171_406)"/>
<path d="M47.8421 5.40237L47.8413 50.9874C47.841 51.3352 47.5599 51.6172 47.213 51.6172C46.8665 51.6172 46.5851 51.3352 46.5851 50.9874L46.5861 5.40237C46.5861 5.05444 46.8672 4.77269 47.2142 4.77269C47.5611 4.77269 47.8421 5.05444 47.8421 5.40237Z" stroke="#32798F" stroke-width="2" mask="url(#path-1-outside-1_171_406)"/>
<path d="M17.0176 41.1307L46.882 41.1622C47.229 41.1625 47.5097 41.4447 47.5092 41.7926C47.5092 42.1404 47.2275 42.422 46.8809 42.4217L17.0162 42.3903C16.6694 42.3898 16.3886 42.1076 16.3889 41.7598C16.3894 41.412 16.6708 41.1303 17.0176 41.1307Z" stroke="#32798F" stroke-width="2" mask="url(#path-1-outside-1_171_406)"/>
<path d="M17.0523 45.0182L46.9058 44.948C47.2528 44.9471 47.5346 45.2284 47.5353 45.5762C47.5361 45.924 47.2554 46.2066 46.9089 46.2075L17.0552 46.2777C16.7084 46.2786 16.4266 45.9973 16.4257 45.6495C16.425 45.3017 16.7055 45.0191 17.0523 45.0182Z" stroke="#32798F" stroke-width="2" mask="url(#path-1-outside-1_171_406)"/>
<path d="M16.3959 40.6368L11.4671 40.6632C11.1203 40.6651 10.8377 40.3847 10.8358 40.0369C10.834 39.689 11.1136 39.4056 11.4604 39.4038L16.3892 39.3773C16.736 39.3755 17.0186 39.6559 17.0205 40.0037C17.0223 40.3515 16.7427 40.635 16.3959 40.6368Z" stroke="#32798F" stroke-width="2" mask="url(#path-1-outside-1_171_406)"/>
<path d="M12.9218 50.6158L16.8222 50.6407C17.169 50.6429 17.4484 50.9268 17.4463 51.2745C17.4441 51.6223 17.1611 51.9024 16.8143 51.9002L12.9138 51.8753C12.5671 51.8731 12.2876 51.5894 12.2898 51.2415C12.292 50.8937 12.575 50.6136 12.9218 50.6158Z" stroke="#32798F" stroke-width="2" mask="url(#path-1-outside-1_171_406)"/>
<path d="M10.5527 7.17727L10.5315 6.79596C10.5306 6.78038 10.5303 6.76436 10.5306 6.74849L10.5385 6.36673C10.5388 6.35071 10.5397 6.33483 10.5411 6.31925L10.5777 5.93898C10.5792 5.9231 10.5812 5.90752 10.584 5.8915L10.6491 5.51553C10.6518 5.49995 10.6551 5.48437 10.6589 5.46879L10.7523 5.09846C10.7561 5.08333 10.7605 5.06775 10.7656 5.05291L10.8866 4.69089C10.8916 4.67576 10.8971 4.66092 10.9033 4.64608L11.0513 4.29445C11.0573 4.27961 11.0641 4.26551 11.0714 4.25112L11.2454 3.9115C11.2526 3.89741 11.2603 3.88346 11.2686 3.87011L11.4677 3.54458C11.476 3.53093 11.4849 3.51758 11.4942 3.50467L11.7173 3.19562C11.7267 3.18256 11.7364 3.1701 11.7466 3.15793L11.9924 2.86624C12.0027 2.85407 12.0134 2.84235 12.0245 2.83093L12.2917 2.55896C12.3028 2.54754 12.3143 2.53656 12.3262 2.52632L12.6132 2.27528C12.625 2.2646 12.6374 2.25466 12.6502 2.24516L12.9551 2.01652C12.9678 2.00703 12.9808 1.99798 12.9943 1.98967L13.3156 1.78492C13.3273 1.7772 13.3393 1.77008 13.3514 1.76355L13.603 1.62572C13.6135 1.62008 13.6241 1.61474 13.6349 1.60984L13.8938 1.48669C13.9046 1.48135 13.9156 1.47646 13.9265 1.4723L14.1921 1.36399C14.2032 1.35939 14.2143 1.35524 14.2255 1.35153L14.4967 1.2588C14.5081 1.25464 14.5195 1.25123 14.5309 1.24811L14.807 1.17111C14.8185 1.1677 14.8301 1.16503 14.8418 1.16236L15.1217 1.10123C15.1334 1.09856 15.1451 1.09618 15.1569 1.0944L15.4399 1.04915C15.4516 1.04722 15.4634 1.04574 15.4753 1.04455L15.7604 1.01577C15.7724 1.01458 15.7842 1.01384 15.7962 1.0131L16.0823 1.00049C16.0943 1.00019 16.1063 0.999743 16.1181 1.00019L16.4047 1.0036C16.7515 1.0085 17.0289 1.29411 17.0243 1.64204C17.0197 1.98967 16.7349 2.26756 16.3881 2.26311L16.1015 2.25926L16.1374 2.25896L15.8511 2.27142L15.8867 2.26875L15.6016 2.29768L15.6371 2.29308L15.3541 2.33834L15.3893 2.33181L15.1094 2.39264L15.1442 2.38418L14.8681 2.46134L14.9023 2.45065L14.6311 2.54338L14.6645 2.53092L14.3991 2.63908L14.4318 2.62469L14.1729 2.74769L14.2048 2.73137L13.9533 2.86891L13.9891 2.84799L13.6678 3.05274L13.707 3.02544L13.4019 3.25408L13.4389 3.22411L13.152 3.47515L13.1866 3.44251L12.9194 3.71477L12.9515 3.67945L12.7056 3.97115L12.7349 3.93361L12.5118 4.24311L12.5383 4.2032L12.3392 4.52872L12.3624 4.48733L12.1884 4.82695L12.2085 4.78362L12.0606 5.13526L12.0775 5.0909L11.9564 5.45292L11.9699 5.40692L11.8767 5.77726L11.8866 5.73052L11.8215 6.10693L11.8279 6.05975L11.7913 6.43958L11.7941 6.3921L11.7863 6.77386L11.7855 6.72608L11.8067 7.10739C11.8259 7.45487 11.5607 7.75191 11.2145 7.77135C10.8681 7.79034 10.5719 7.52446 10.5527 7.17727Z" stroke="#32798F" stroke-width="2" mask="url(#path-1-outside-1_171_406)"/>
<path d="M43.605 1.03168L43.8466 1.03553C43.861 1.03583 43.8751 1.03628 43.8894 1.03776L44.13 1.05794C44.1443 1.05913 44.1584 1.06061 44.1724 1.06283L44.4114 1.09933C44.4254 1.10156 44.4393 1.10423 44.4534 1.10735L44.6889 1.16002C44.703 1.16313 44.7166 1.16699 44.7302 1.17114L44.962 1.23984C44.9757 1.2437 44.989 1.24859 45.0026 1.25319L45.2291 1.33791C45.2424 1.34281 45.2556 1.34815 45.2685 1.35423L45.4886 1.45409C45.5018 1.45972 45.5143 1.46625 45.5268 1.47308L45.7397 1.58732C45.7521 1.5943 45.7647 1.60142 45.7768 1.60898L45.9813 1.73777C45.9934 1.74534 46.0051 1.75335 46.0165 1.7621L46.2119 1.90454C46.2233 1.91285 46.2347 1.9216 46.2457 1.9308L46.4309 2.08644C46.4418 2.09564 46.4525 2.10513 46.4627 2.11537L46.6368 2.28288C46.6472 2.29312 46.657 2.30336 46.6664 2.31359L46.8289 2.49327C46.8384 2.50351 46.8475 2.51449 46.8565 2.52591L47.0061 2.71582C47.0149 2.72651 47.0228 2.73793 47.0308 2.74936L47.1573 2.93348C47.1649 2.94446 47.1721 2.95559 47.1789 2.96687L47.2937 3.15915C47.3005 3.17013 47.3069 3.18185 47.313 3.19372L47.4157 3.39269C47.4217 3.40411 47.427 3.41628 47.4327 3.42844L47.5225 3.63319C47.5278 3.64566 47.5327 3.65782 47.5373 3.67044L47.6138 3.88038C47.6182 3.89299 47.6225 3.90545 47.6262 3.91807L47.6898 4.13305C47.6932 4.14552 47.6966 4.15842 47.6997 4.17133L47.7493 4.38973C47.7524 4.40234 47.7551 4.41525 47.7568 4.42846L47.7929 4.64953C47.7951 4.66244 47.7966 4.67579 47.7981 4.6887L47.8201 4.9117C47.8213 4.9249 47.8224 4.93826 47.8228 4.95116L47.8308 5.17491C47.8311 5.18811 47.8311 5.20146 47.8308 5.21467L47.8247 5.43841C47.8153 5.78604 47.5262 6.06023 47.1797 6.05073C46.8327 6.04124 46.5596 5.75147 46.5691 5.40384L46.5751 5.18025L46.5756 5.21971L46.5676 4.99597L46.5703 5.03544L46.5482 4.81288L46.5535 4.85205L46.5176 4.63128L46.5251 4.67L46.4751 4.45205L46.4853 4.49048L46.4222 4.27578L46.4343 4.31347L46.3578 4.10293L46.3726 4.13988L46.2828 3.93513L46.2998 3.97074L46.1971 3.77177L46.2165 3.80634L46.1017 3.6145L46.1233 3.64788L45.9965 3.46376L46.0211 3.49684L45.8711 3.30693L45.8987 3.33957L45.7366 3.16019L45.7666 3.19105L45.5923 3.0231L45.6241 3.05203L45.4393 2.89624L45.4731 2.9228L45.2776 2.78036L45.3131 2.8044L45.1087 2.67562L45.1458 2.69728L44.9329 2.58259L44.9712 2.60158L44.7511 2.50202L44.7909 2.51834L44.5644 2.43362L44.6053 2.44727L44.3735 2.37858L44.4152 2.38926L44.1792 2.33674L44.2216 2.34445L43.9826 2.30795L44.0254 2.31285L43.7845 2.29267L43.8273 2.29505L43.5861 2.29119C43.2392 2.28585 42.9622 1.99949 42.9675 1.65201C42.9729 1.30408 43.2584 1.02678 43.605 1.03168Z" stroke="#32798F" stroke-width="2" mask="url(#path-1-outside-1_171_406)"/>
<path d="M44.8421 52.7367L44.9796 52.7407L44.9412 52.7409L45.0784 52.7364L45.0402 52.7388L45.1769 52.7261L45.1386 52.7308L45.2746 52.7096L45.2367 52.7167L45.3707 52.6872L45.3338 52.6965L45.4659 52.659L45.4292 52.6706L45.5586 52.6249L45.5231 52.6388L45.6496 52.5853L45.6147 52.6013L45.7378 52.54L45.7038 52.5583L45.823 52.4896L45.79 52.5097L45.9048 52.4339L45.8735 52.4562L45.9832 52.3734L45.951 52.3995L46.0726 52.2947L46.0396 52.3253L46.1532 52.212L46.1226 52.2447L46.2283 52.1237L46.1999 52.1585L46.2965 52.0302L46.2707 52.067L46.3579 51.9321L46.3348 51.9707L46.412 51.8299L46.3919 51.87L46.4589 51.724L46.4416 51.7655L46.4984 51.6151L46.4839 51.6576L46.5298 51.5036L46.5184 51.5471L46.5529 51.3901L46.5449 51.4343L46.5684 51.2753L46.5631 51.32L46.5752 51.1597L46.5737 51.2047L46.5742 51.0438C46.5752 50.6961 46.8573 50.4151 47.2043 50.4162C47.5509 50.4174 47.8312 50.7004 47.83 51.0481L47.8292 51.209C47.8292 51.224 47.8289 51.2389 47.8277 51.2538L47.8156 51.4142C47.8146 51.4292 47.813 51.444 47.8107 51.4588L47.7872 51.6179C47.785 51.6327 47.7823 51.6476 47.7792 51.6621L47.7444 51.8191C47.7413 51.8338 47.7376 51.8483 47.7335 51.8627L47.6876 52.0167C47.6835 52.0311 47.6785 52.0453 47.6733 52.0593L47.6168 52.2097C47.6114 52.2238 47.6058 52.2376 47.5998 52.2513L47.5323 52.3973C47.5262 52.4109 47.5194 52.4243 47.5123 52.4373L47.4349 52.5783C47.4278 52.5913 47.4198 52.6042 47.4119 52.6169L47.3247 52.7517C47.3164 52.7643 47.3081 52.7767 47.299 52.7885L47.2025 52.917C47.1933 52.9289 47.1839 52.9406 47.1744 52.9519L47.0688 53.0729C47.0588 53.0842 47.0486 53.0952 47.0381 53.1057L46.9245 53.2191C46.9139 53.2296 46.9029 53.2399 46.8915 53.2495L46.7699 53.3544C46.7593 53.3635 46.7487 53.3722 46.7374 53.3805L46.6274 53.4633C46.6172 53.471 46.607 53.4784 46.5961 53.4856L46.4813 53.5614C46.4707 53.5683 46.4597 53.5752 46.4487 53.5816L46.3295 53.6503C46.3185 53.6566 46.3074 53.6627 46.2957 53.6684L46.1726 53.7296C46.1612 53.7353 46.1495 53.7406 46.1377 53.7457L46.0112 53.7992C45.9991 53.8043 45.9874 53.8089 45.9753 53.8132L45.8458 53.8589C45.8337 53.863 45.8211 53.867 45.809 53.8704L45.6768 53.9081C45.6643 53.9117 45.6518 53.9148 45.6397 53.9175L45.5052 53.947C45.4928 53.9498 45.4802 53.952 45.4673 53.9541L45.3318 53.9753C45.3193 53.9773 45.3064 53.9789 45.2935 53.9801L45.1568 53.9928C45.1439 53.994 45.1314 53.9949 45.1185 53.9952L44.981 53.9997C44.9682 54.0001 44.9553 54.0001 44.9424 53.9997L44.8053 53.9957C44.4588 53.9854 44.1857 53.6954 44.1959 53.3477C44.2061 53.0001 44.4955 52.7265 44.8421 52.7367Z" stroke="#32798F" stroke-width="2" mask="url(#path-1-outside-1_171_406)"/>
<path d="M17.5538 50.2308L17.5504 50.4373L17.5495 50.3939L17.5603 50.6001L17.5566 50.5568L17.5816 50.7618L17.5748 50.7188L17.6139 50.9218L17.6043 50.8792L17.6572 51.0789L17.6447 51.0372L17.7112 51.2327L17.6957 51.1921L17.7757 51.3825L17.7574 51.343L17.8503 51.5274L17.8295 51.4891L17.9348 51.6667L17.9113 51.6301L18.0287 51.8L18.0027 51.7649L18.1316 51.9262L18.1032 51.8933L18.2428 52.0452L18.2123 52.0142L18.3621 52.156L18.3295 52.1273L18.4887 52.2586L18.4559 52.2334L18.6065 52.3417L18.5741 52.3199L18.7311 52.4185L18.6973 52.3986L18.8602 52.4874L18.8253 52.4699L18.9934 52.5482L18.9574 52.5328L19.1299 52.6006L19.0931 52.5874L19.2696 52.6443L19.232 52.6335L19.4116 52.6792L19.3735 52.6707L19.5556 52.7052L19.517 52.6991L19.7009 52.7222L19.662 52.7185L19.8469 52.7301L19.8078 52.7289L19.9932 52.7288C20.34 52.7288 20.6211 53.0107 20.6213 53.3584C20.6213 53.7062 20.3402 53.9883 19.9934 53.9883H19.8081C19.7951 53.9883 19.782 53.988 19.7691 53.9871L19.584 53.9757C19.571 53.9748 19.5581 53.9736 19.5451 53.9719L19.3613 53.949C19.3483 53.9473 19.3354 53.9452 19.3227 53.9429L19.1406 53.9084C19.1277 53.9059 19.115 53.9031 19.1024 53.9L18.9228 53.8541C18.9102 53.8509 18.8977 53.8473 18.8852 53.8433L18.7089 53.7865C18.6964 53.7825 18.6842 53.778 18.672 53.7733L18.4994 53.7055C18.4872 53.7007 18.4753 53.6957 18.4636 53.6902L18.2955 53.6117C18.2837 53.6062 18.2721 53.6004 18.2606 53.5941L18.0978 53.5053C18.0863 53.4991 18.0751 53.4926 18.064 53.4856L17.907 53.3869C17.896 53.38 17.8851 53.3727 17.8746 53.3651L17.724 53.2568C17.7127 53.2486 17.7019 53.2403 17.6913 53.2316L17.5321 53.1004C17.5208 53.0911 17.51 53.0816 17.4995 53.0715L17.3497 52.9296C17.3391 52.9196 17.3289 52.9093 17.3192 52.8986L17.1795 52.7467C17.1697 52.736 17.1603 52.7249 17.1512 52.7136L17.0224 52.5523C17.0134 52.5409 17.0048 52.5294 16.9965 52.5173L16.8792 52.3476C16.8709 52.3356 16.863 52.3234 16.8556 52.3109L16.7502 52.1334C16.7428 52.1209 16.7358 52.1081 16.7293 52.0952L16.6364 51.9108C16.6299 51.8977 16.6238 51.8845 16.6182 51.8712L16.5383 51.6807C16.5327 51.6673 16.5275 51.6538 16.5228 51.64L16.4562 51.4445C16.4514 51.4307 16.4473 51.4169 16.4435 51.4028L16.3905 51.2031C16.3868 51.1891 16.3835 51.1749 16.3809 51.1606L16.3418 50.9578C16.339 50.9434 16.3368 50.9292 16.335 50.9148L16.31 50.7096C16.3082 50.6952 16.3069 50.6807 16.3062 50.6663L16.2954 50.4599C16.2946 50.4453 16.2943 50.4308 16.2946 50.4163L16.298 50.2097C16.3039 49.862 16.5898 49.5848 16.9364 49.5906C17.2832 49.5964 17.5596 49.883 17.5538 50.2308Z" stroke="#32798F" stroke-width="2" mask="url(#path-1-outside-1_171_406)"/>
<path d="M11.9233 49.5034L11.9261 49.6179L11.9238 49.5758L11.9343 49.6899L11.929 49.6481L11.9471 49.7613L11.939 49.7199L11.9648 49.8316L11.9538 49.7908L11.9869 49.9006L11.9733 49.8605L12.0137 49.9678L11.9976 49.9288L12.0451 50.0331L12.0263 49.9952L12.0806 50.0961L12.0593 50.0596L12.1202 50.1567L12.0966 50.1218L12.1639 50.2145L12.138 50.1811L12.2114 50.2691L12.1833 50.2377L12.2623 50.3205L12.2322 50.2909L12.3166 50.3682L12.2851 50.3412L12.3721 50.411L12.3392 50.3863L12.4306 50.4501L12.3962 50.4277L12.4916 50.4855L12.4558 50.4654L12.5548 50.5168L12.5176 50.4991L12.6199 50.5438L12.5817 50.5286L12.6865 50.5666L12.6474 50.5539L12.7545 50.5849L12.7147 50.5748L12.8236 50.5987L12.7832 50.5911L12.8934 50.6079L12.8526 50.6031L12.9637 50.6126L12.9226 50.6104L13.0341 50.6126C13.3808 50.6194 13.6564 50.9068 13.6496 51.2546C13.6428 51.6022 13.3562 51.8786 13.0094 51.8718L12.898 51.8696C12.8843 51.8694 12.8707 51.8687 12.857 51.8675L12.7459 51.858C12.7323 51.8568 12.7187 51.8552 12.7051 51.8531L12.595 51.8364C12.5814 51.8344 12.5679 51.8319 12.5546 51.8289L12.4457 51.8051C12.4323 51.8021 12.419 51.7987 12.4058 51.7948L12.2988 51.7638C12.2857 51.7599 12.2726 51.7558 12.2598 51.751L12.1549 51.7131C12.142 51.7085 12.1293 51.7033 12.1167 51.6978L12.0146 51.6531C12.002 51.6475 11.9896 51.6417 11.9775 51.6353L11.8785 51.584C11.8664 51.5776 11.8544 51.5709 11.8427 51.5638L11.7473 51.5061C11.7354 51.499 11.724 51.4916 11.7128 51.4837L11.6214 51.4197C11.6101 51.4119 11.599 51.4037 11.5884 51.3951L11.5012 51.3254C11.4904 51.3166 11.4799 51.3076 11.4697 51.2982L11.3852 51.2209C11.3749 51.2114 11.3648 51.2015 11.3551 51.1914L11.276 51.1085C11.2663 51.0984 11.257 51.0878 11.2479 51.077L11.1746 50.989C11.1655 50.9782 11.1568 50.9671 11.1485 50.9556L11.0813 50.8631C11.0731 50.8516 11.0651 50.8399 11.0577 50.828L10.9967 50.731C10.9892 50.719 10.9821 50.7068 10.9754 50.6945L10.9211 50.5935C10.9145 50.5812 10.9081 50.5685 10.9023 50.5556L10.8548 50.4513C10.8491 50.4386 10.8436 50.4255 10.8387 50.4123L10.7983 50.305C10.7934 50.2918 10.7888 50.2785 10.7847 50.265L10.7517 50.1552C10.7476 50.1417 10.744 50.128 10.7409 50.1144L10.7152 50.0027C10.7121 49.9889 10.7092 49.9751 10.707 49.9611L10.689 49.8479C10.6868 49.834 10.685 49.82 10.6837 49.8059L10.6732 49.6918C10.6718 49.6777 10.6709 49.6636 10.6706 49.6495L10.6678 49.5348C10.6591 49.1872 10.9331 48.8983 11.2799 48.8896C11.6265 48.8808 11.9146 49.1556 11.9233 49.5034Z" stroke="#32798F" stroke-width="2" mask="url(#path-1-outside-1_171_406)"/>
<path d="M24.3831 30.1902L38.3392 15.7519C38.5808 15.5023 38.9782 15.4959 39.2271 15.7382C39.4762 15.9802 39.4823 16.3786 39.241 16.6284L25.2848 31.0669C25.0434 31.3168 24.6458 31.3228 24.3968 31.0806C24.1478 30.8386 24.1416 30.4402 24.3831 30.1902Z" stroke="#32798F" stroke-width="2" mask="url(#path-1-outside-1_171_406)"/>
<path d="M31.4934 28.7575L36.9322 23.0085C37.1708 22.7562 37.5685 22.746 37.8201 22.9853C38.0716 23.2246 38.0821 23.6235 37.8431 23.8757L32.4042 29.6243C32.1657 29.877 31.7683 29.8875 31.5165 29.6479C31.265 29.4086 31.2548 29.0097 31.4934 28.7575Z" stroke="#32798F" stroke-width="2" mask="url(#path-1-outside-1_171_406)"/>
</svg>
