<svg width="29" height="29" viewBox="0 0 29 29" fill="none" xmlns="http://www.w3.org/2000/svg">
<path fill-rule="evenodd" clip-rule="evenodd" d="M14.6501 0C6.84777 0 0.522994 6.3244 0.522994 14.1262C0.522994 16.7955 1.2633 19.2916 2.54992 21.4211L0 29L7.82153 26.4958C9.8453 27.6147 12.1731 28.2532 14.6501 28.2532C22.4524 28.2532 28.7771 21.9281 28.7771 14.1262C28.7771 6.3244 22.4524 0 14.6501 0ZM14.6501 25.8863C12.2613 25.8863 10.037 25.1701 8.17929 23.9421L3.6601 25.3882L5.12878 21.0217C3.72104 19.0822 2.88926 16.7009 2.88926 14.1262C2.88926 7.64141 8.16567 2.36612 14.6501 2.36612C21.1353 2.36612 26.4108 7.64141 26.4108 14.1262C26.4108 20.611 21.1353 25.8863 14.6501 25.8863ZM21.274 17.3361C20.9195 17.142 19.1796 16.2036 18.854 16.0712C18.5275 15.9381 18.2893 15.8691 18.035 16.2213C17.7815 16.5726 17.0596 17.3594 16.8406 17.592C16.6208 17.8246 16.4099 17.8462 16.0553 17.6521C15.7024 17.4588 14.5546 17.0337 13.2231 15.7544C12.1867 14.7582 11.5073 13.5511 11.31 13.1821C11.1134 12.8132 11.3092 12.6255 11.4961 12.4522C11.6645 12.2966 11.873 12.0447 12.0607 11.841C12.2484 11.6373 12.3151 11.4898 12.4442 11.2532C12.5733 11.0174 12.5212 10.804 12.4378 10.6203C12.3536 10.4374 11.699 8.63518 11.4255 7.90208C11.1528 7.16978 10.8479 7.27809 10.637 7.27007C10.4268 7.26285 10.1878 7.22345 9.94716 7.21463C9.70652 7.20501 9.31267 7.2813 8.96855 7.6294C8.62444 7.9775 7.66027 8.81483 7.59369 10.5898C7.52711 12.3632 8.75523 14.1262 8.92608 14.3732C9.09774 14.621 11.2707 18.467 14.8819 20.0487C18.4947 21.6296 18.5131 21.1477 19.1764 21.1124C19.839 21.0771 21.3422 20.319 21.6743 19.4889C22.0063 18.6587 22.0336 17.9369 21.9486 17.7829C21.8644 17.6297 21.6278 17.5294 21.274 17.3361Z" fill="#32798F"/>
</svg>
