<svg width="360" height="201" viewBox="0 0 360 201" fill="none" xmlns="http://www.w3.org/2000/svg">
<path d="M35.3847 136.88L49.1969 94.6241V136.88H59.5162V80.6673H43.221L29.9517 124.475L16.2952 80.6673H0.15567V136.88H10.4762V94.6241L24.3656 136.88H35.3847ZM63.7386 136.88H75.0678L79.0251 125.483H100.906L104.864 136.88H116.892L95.8632 80.6673H84.6897L63.7386 136.88ZM89.9658 94.2372L97.7248 116.412H82.2054L89.9645 94.2372H89.9658ZM155.953 136.88H168.291L155.798 112.535C162.859 109.512 165.962 104.238 165.962 97.726C165.962 85.9417 158.902 80.6686 140.357 80.6686H121.888V136.882H132.985V114.862H144.78L155.953 136.882V136.88ZM141.598 89.3522C149.126 89.3522 154.557 91.2908 154.557 97.8032C154.557 103.385 150.833 106.254 142.141 106.254H132.985V89.3509H141.598V89.3522ZM212.163 118.428C210.3 126.104 204.87 129.05 198.196 129.05C190.126 129.05 183.531 121.917 183.531 108.504C183.531 95.479 190.127 88.4999 198.585 88.4999C204.792 88.4999 210.069 91.0594 212.164 98.8894H222.718C220.855 87.1823 211.854 79.662 198.662 79.662C182.29 79.662 172.048 90.7496 172.048 108.504C172.048 126.492 181.592 137.889 198.352 137.889C211.776 137.889 221.243 129.825 222.718 118.428H212.163Z" fill="url(#paint0_linear_171_343)"/>
<path d="M40.1153 180.625C38.2524 188.301 32.822 191.247 26.1487 191.247C18.0783 191.247 11.4836 184.114 11.4836 170.701C11.4836 157.676 18.0796 150.697 26.5373 150.697C32.7448 150.697 38.0208 153.256 40.1166 161.086H50.67C48.8071 149.379 39.8065 141.859 26.6145 141.859C10.2421 141.859 0 152.947 0 170.701C0 188.689 9.54477 200.086 26.3044 200.086C39.7281 200.086 49.1956 192.022 50.67 180.625H40.1153ZM93.9978 142.866V165.816H68.7792V142.866H57.6829V199.078H68.7792V174.811H93.9978V199.078H105.094V142.866H93.9978ZM109.316 199.078H120.646L124.603 187.681H146.484L150.442 199.078H162.469L141.441 142.866H130.268L109.316 199.078ZM135.544 156.435L143.303 178.611H127.783L135.542 156.435H135.544ZM190.358 141.859C173.132 141.859 162.812 153.256 162.812 170.701C162.812 188.689 172.667 200.086 188.496 200.086C196.488 200.086 202.231 197.139 205.411 192.488L205.721 199.078H214.489V169.228H190.202V178.299H204.247V179.23C204.247 188.224 196.177 191.247 190.202 191.247C180.58 191.247 174.295 184.114 174.295 170.701C174.295 157.288 180.891 150.697 190.28 150.697C196.565 150.697 201.997 153.72 203.781 159.923H214.335C212.472 149.534 203.627 141.858 190.358 141.858V141.859ZM219.876 199.078H231.205L235.162 187.681H257.044L261.001 199.078H273.029L252 142.866H240.827L219.876 199.078ZM246.103 156.435L253.862 178.611H238.343L246.102 156.435H246.103ZM289.122 142.867H278.026V199.08H316.514V190.086H289.122V142.867ZM332.607 142.867H321.51V199.08H359.998V190.086H332.607V142.867Z" fill="url(#paint1_linear_171_343)"/>
<path d="M21.7282 15.907C9.31319 15.907 0.932735 23.5056 1.16688 35.0586H11.5633C11.5633 26.6847 16.375 23.8167 21.1081 23.8167C26.3842 23.8167 29.4101 26.6076 29.4101 31.5697C29.4101 40.486 18.2366 49.9448 0.156957 64.4428V73.1265H41.5138V64.133H12.6492C29.9517 52.5801 40.1951 41.4938 40.1951 31.0272C40.1951 21.1814 32.9789 15.9083 21.7269 15.9083L21.7282 15.907ZM66.6088 15.907C54.1938 15.907 45.8133 23.5056 46.0475 35.0586H56.4439C56.4439 26.6847 61.2556 23.8167 65.9887 23.8167C71.2648 23.8167 74.2907 26.6076 74.2907 31.5697C74.2907 40.486 63.1172 49.9448 45.0376 64.4428V73.1265H86.3944V64.133H57.5298C74.8323 52.5801 85.0757 41.4938 85.0757 31.0272C85.0757 21.1814 77.8595 15.9083 66.6075 15.9083L66.6088 15.907ZM112.342 66.0703C105.438 66.0703 102.1 61.2625 101.48 55.4481H91.3925C92.0139 65.1396 98.9959 74.133 112.188 74.133C123.75 74.133 133.371 66.9997 133.371 54.5945C133.371 41.6455 124.447 34.8233 114.827 34.8233C109.551 34.8233 106.058 36.1422 103.653 37.9253L105.205 25.9083H131.122V16.9148H96.437L92.7125 47.8494L102.489 48.3148C103.653 45.6011 107.145 43.1971 112.11 43.1971C117.308 43.1971 122.507 46.9187 122.507 54.6716C122.507 61.8049 118.24 66.069 112.342 66.069V66.0703Z" fill="url(#paint2_linear_171_343)"/>
<path fill-rule="evenodd" clip-rule="evenodd" d="M300.59 3.07755C303.365 5.86712 304.688 9.00505 303.625 12.7112C302.928 12.6302 302.232 12.5479 301.533 12.4669C301.493 12.9606 301.452 13.4555 301.414 13.9479C299.175 21.0503 290.272 24.5251 277.656 25.9854C271.457 29.3792 266.906 33.6265 263.456 40.5271C266.168 59.2738 267.223 78.5603 260.822 95.2283C256.701 105.962 249.084 115.111 238.164 124.003C233.527 117.813 232.428 109.685 235.875 99.0733C235.034 92.9439 234.96 86.4508 237.019 78.9486C236.092 67.4972 236.866 55.9803 239.45 45.9006C237.438 50.4667 235.999 53.8579 233.557 57.5936C220.201 62.3063 204.036 62.1687 187.779 59.2506C183.271 60.3433 179.468 61.2355 175.018 63.2833C168.308 68.0345 159.839 70.2598 149.657 68.3585C154.38 57.5383 167.289 53.1367 175.534 55.1653C178.352 54.4132 181.263 53.7885 183.773 53.4928C179.959 53.0365 176.316 52.476 172.731 51.562C198.048 19.2789 230.393 3.77944 258.761 12.5119C258.334 15.7437 255.765 19.4074 252.897 23.4041C256.879 20.7829 259.541 17.6296 261.967 14.2268C268.319 12.5441 275.741 7.35317 282.682 3.1354C289.089 -0.635009 295.329 -1.41532 300.591 3.07884L300.59 3.07755ZM278.911 28.1129C287.522 46.7336 285.444 64.9917 276.05 83.0031C275.007 67.8289 272.555 53.3128 266.322 40.5785C269.815 33.7718 274.045 29.7365 278.911 28.1142V28.1129ZM203.424 62.6277C203.361 68.1374 200.403 72.0813 196.672 75.6075C192.971 72.2819 192.932 65.754 188.488 61.0851C194.116 62.6058 199.17 63.2434 203.422 62.629L203.424 62.6277Z" fill="url(#paint3_linear_171_343)"/>
<defs>
<linearGradient id="paint0_linear_171_343" x1="268.498" y1="11" x2="-11.0017" y2="183.5" gradientUnits="userSpaceOnUse">
<stop stop-color="#32798F"/>
<stop offset="1" stop-color="#2C6476"/>
</linearGradient>
<linearGradient id="paint1_linear_171_343" x1="268.498" y1="11" x2="-11.0017" y2="183.5" gradientUnits="userSpaceOnUse">
<stop stop-color="#32798F"/>
<stop offset="1" stop-color="#2C6476"/>
</linearGradient>
<linearGradient id="paint2_linear_171_343" x1="268.498" y1="11" x2="-11.0017" y2="183.5" gradientUnits="userSpaceOnUse">
<stop stop-color="#32798F"/>
<stop offset="1" stop-color="#2C6476"/>
</linearGradient>
<linearGradient id="paint3_linear_171_343" x1="268.498" y1="11" x2="-11.0017" y2="183.5" gradientUnits="userSpaceOnUse">
<stop stop-color="#32798F"/>
<stop offset="1" stop-color="#2C6476"/>
</linearGradient>
</defs>
</svg>
