<svg width="120" height="30" viewBox="0 0 120 30" fill="none" xmlns="http://www.w3.org/2000/svg">
<path fill-rule="evenodd" clip-rule="evenodd" d="M119.193 1.31487C119.851 1.96275 120.165 2.69154 119.913 3.5523C119.748 3.53349 119.583 3.51438 119.417 3.49557C119.408 3.61022 119.398 3.72517 119.389 3.83951C118.858 5.48908 116.746 6.29609 113.755 6.63526C112.284 7.42347 111.205 8.40992 110.387 10.0126C111.03 14.3665 111.28 18.8459 109.762 22.7171C108.785 25.2101 106.979 27.3349 104.389 29.4001C103.29 27.9625 103.029 26.0747 103.846 23.6101C103.647 22.1865 103.629 20.6785 104.118 18.9361C103.898 16.2765 104.081 13.6016 104.694 11.2606C104.217 12.3211 103.876 13.1087 103.297 13.9763C100.129 15.0709 96.2958 15.0389 92.4406 14.3612C91.3715 14.615 90.4696 14.8222 89.4143 15.2978C87.8229 16.4013 85.8144 16.9181 83.3999 16.4765C84.5199 13.9635 87.5813 12.9412 89.5366 13.4123C90.2048 13.2377 90.8952 13.0926 91.4905 13.0239C90.5859 12.9179 89.7221 12.7877 88.8718 12.5755C94.8758 5.07766 102.546 1.47788 109.274 3.50602C109.172 4.25661 108.563 5.10751 107.883 6.03574C108.827 5.42697 109.459 4.6946 110.034 3.9043C111.54 3.51348 113.3 2.30789 114.946 1.3283C116.466 0.452615 117.946 0.271388 119.194 1.31516L119.193 1.31487ZM114.052 7.12938C116.094 11.4541 115.601 15.6946 113.374 19.8777C113.126 16.3535 112.545 12.9821 111.067 10.0245C111.895 8.44366 112.898 7.50647 114.052 7.12968V7.12938ZM96.1505 15.1455C96.1356 16.4251 95.4342 17.3411 94.5494 18.1601C93.6716 17.3877 93.6625 15.8716 92.6087 14.7872C93.9432 15.1404 95.1419 15.2885 96.1502 15.1458L96.1505 15.1455Z" fill="#32798F"/>
<path d="M8.26267 13.5608L11.5022 3.54605V13.5608H13.9225V0.238252H10.1006L6.9884 10.6208L3.78539 0.238252H0V13.5608H2.42059V3.54605L5.67823 13.5608H8.26237H8.26267ZM14.9128 13.5608H17.57L18.4981 10.8596H23.6302L24.5584 13.5608H27.3794L22.4474 0.238252H19.8267L14.9128 13.5608ZM21.0642 3.45434L22.884 8.70989H19.2441L21.0639 3.45434H21.0642ZM36.541 13.5608H39.4347L36.5045 7.791C38.1607 7.07442 38.8885 5.82467 38.8885 4.28121C38.8885 1.48831 37.2326 0.238557 32.8829 0.238557H28.5514V13.5611H31.1539V8.34246H33.3014H33.9203L36.541 13.5611V13.5608ZM33.1741 2.2966C34.9396 2.2966 36.2136 2.75604 36.2136 4.29949C36.2136 5.62237 35.34 6.30239 33.3014 6.30239H31.1539V2.29629H33.1741V2.2966ZM49.7245 9.18761C49.2876 11.0068 48.0139 11.7051 46.4487 11.7051C44.5559 11.7051 43.0092 10.0145 43.0092 6.83556C43.0092 3.74865 44.5562 2.0946 46.5399 2.0946C47.9958 2.0946 49.2332 2.7012 49.7248 4.55694H52.2C51.7631 1.78232 49.6521 0 46.558 0C42.718 0 40.3158 2.62777 40.3158 6.83556C40.3158 11.0988 42.5544 13.8 46.4853 13.8C49.6337 13.8 51.8542 11.8888 52.2 9.18761H49.7248H49.7245Z" fill="#32798F"/>
<path d="M9.29343 23.9871C8.86185 25.8853 7.60379 26.614 6.05782 26.614C4.18817 26.614 2.66037 24.8499 2.66037 21.5328C2.66037 18.3118 4.18846 16.5858 6.14783 16.5858C7.58591 16.5858 8.8082 17.2188 9.29372 19.1552H11.7386C11.307 16.26 9.22189 14.4002 6.16571 14.4002C2.37276 14.4002 0 17.1422 0 21.5328C0 25.9813 2.21122 28.7999 6.09388 28.7999C9.20371 28.7999 11.397 26.8057 11.7386 23.9871H9.29372H9.29343ZM21.7763 14.6491V20.3248H15.9339V14.6491H13.3633V28.5507H15.9339V22.5492H21.7763V28.5507H24.3469V14.6491H21.7763ZM25.3251 28.5507H27.9497L28.8665 25.7321H33.9357L34.8525 28.5507H37.639L32.7674 14.6491H30.1788L25.3251 28.5507ZM31.4011 18.005L33.1986 23.4889H29.6033L31.4008 18.005H31.4011ZM44.0997 14.4002C40.1092 14.4002 37.7182 17.2188 37.7182 21.5328C37.7182 25.9813 40.0013 28.7999 43.6685 28.7999C45.5199 28.7999 46.8504 28.0709 47.5872 26.9207L47.659 28.5507H49.6902V21.1685H44.0637V23.412H47.3175V23.6421C47.3175 25.8662 45.4478 26.614 44.0637 26.614C41.8346 26.614 40.3786 24.8499 40.3786 21.5328C40.3786 18.2158 41.9067 16.5858 44.0819 16.5858C45.5378 16.5858 46.7962 17.3336 47.2096 18.8675H49.6544C49.2229 16.2981 47.1738 14.3999 44.0997 14.3999V14.4002ZM50.9381 28.5507H53.5627L54.4795 25.7321H59.5487L60.4655 28.5507H63.252L58.3804 14.6491H55.7918L50.9381 28.5507ZM57.0141 18.005L58.8117 23.4889H55.2163L57.0138 18.005H57.0141ZM66.9803 14.6495H64.4096V28.551H73.326V26.3269H66.9803V14.6498V14.6495ZM77.0543 14.6495H74.4836V28.551H83.4V26.3269H77.0543V14.6498V14.6495Z" fill="#32798F"/>
</svg>
