<svg width="184" height="102" viewBox="0 0 184 102" fill="none" xmlns="http://www.w3.org/2000/svg">
<path d="M18.0856 69.7788L25.1452 48.2375V69.7788H30.4195V41.1226H22.0908L15.3087 63.4549L8.3287 41.1226H0.0795651V69.7788H5.35454V48.2375L12.4536 69.7788H18.0856ZM32.5777 69.7788H38.3682L40.3908 63.9686H51.5747L53.5973 69.7788H59.7449L48.997 41.1226H43.2861L32.5777 69.7788ZM45.9827 48.0402L49.9485 59.3446H42.0163L45.9827 48.0402ZM79.7098 69.7788H86.0158L79.6302 57.3682C83.2396 55.8268 84.8257 53.1387 84.8257 49.8188C84.8257 43.8114 81.2169 41.1232 71.7382 41.1232H62.2989V69.7794H67.9703V58.5543H73.9989L79.7098 69.7788ZM72.3727 45.55C76.2201 45.55 78.9964 46.5382 78.9964 49.8581C78.9964 52.7035 77.0927 54.1662 72.6502 54.1662H67.9703V45.5493L72.3727 45.55ZM108.439 60.3722C107.487 64.2852 104.712 65.7872 101.301 65.7872C97.176 65.7872 93.8053 62.1508 93.8053 55.3131C93.8053 48.6733 97.1767 45.1155 101.499 45.1155C104.672 45.1155 107.369 46.4202 108.44 50.4119H113.834C112.882 44.4438 108.282 40.6101 101.539 40.6101C93.1708 40.6101 87.9359 46.2623 87.9359 55.3131C87.9359 64.4831 92.8144 70.2932 101.38 70.2932C108.241 70.2932 113.08 66.1823 113.834 60.3722H108.439Z" fill="#32798F"/>
<path d="M20.5035 92.079C19.5513 95.9919 16.7758 97.494 13.365 97.494C9.24008 97.494 5.86941 93.8575 5.86941 87.0198C5.86941 80.3801 9.24074 76.8223 13.5636 76.8223C16.7363 76.8223 19.433 78.127 20.5041 82.1186H25.8981C24.946 76.1505 20.3457 72.3169 13.603 72.3169C5.23486 72.3169 0 77.9691 0 87.0198C0 96.1899 4.87846 102 13.4445 102C20.3056 102 25.1446 97.8891 25.8981 92.079H20.5035ZM48.0435 72.83V84.5296H35.154V72.83H29.4825V101.486H35.154V89.1149H48.0435V101.486H53.715V72.83H48.0435ZM55.8731 101.486H61.6637L63.6863 95.6761H74.8701L76.8928 101.486H83.0404L72.2925 72.83H66.5816L55.8731 101.486ZM69.2782 79.7477L73.244 91.0521H65.3118L69.2782 79.7477ZM97.2944 72.3169C88.4903 72.3169 83.2153 78.127 83.2153 87.0198C83.2153 96.1899 88.2522 102 96.3429 102C100.428 102 103.363 100.497 104.989 98.1264L105.147 101.486H109.628V86.2688H97.2148V90.8935H104.393V91.3679C104.393 95.9526 100.269 97.494 97.2148 97.494C92.2969 97.494 89.0847 93.8575 89.0847 87.0198C89.0847 80.1821 92.456 76.8223 97.2549 76.8223C100.467 76.8223 103.243 78.3636 104.155 81.5256H109.549C108.597 76.2292 104.076 72.3169 97.2944 72.3169ZM112.381 101.486H118.172L120.195 95.6761H131.379L133.401 101.486H139.549L128.801 72.83H123.09L112.381 101.486ZM125.787 79.7477L129.752 91.0521H121.82L125.787 79.7477ZM147.774 72.8307H142.103V101.487H161.774V96.9022H147.774V72.8307ZM170 72.8307H164.328V101.487H184V96.9022H170V72.8307Z" fill="#32798F"/>
<path d="M11.1056 8.10906C4.7601 8.10906 0.476733 11.9827 0.59641 17.8721H5.91018C5.91018 13.6033 8.36946 12.1413 10.7886 12.1413C13.4853 12.1413 15.0319 13.564 15.0319 16.0936C15.0319 20.6389 9.32096 25.4609 0.0802227 32.8517V37.2784H21.2183V32.6937H6.46516C15.3087 26.8043 20.5442 21.1527 20.5442 15.817C20.5442 10.7979 16.856 8.10971 11.1049 8.10971L11.1056 8.10906ZM34.0447 8.10906C27.6992 8.10906 23.4158 11.9827 23.5355 17.8721H28.8493C28.8493 13.6033 31.3086 12.1413 33.7277 12.1413C36.4244 12.1413 37.971 13.564 37.971 16.0936C37.971 20.6389 32.2601 25.4609 23.0193 32.8517V37.2784H44.1573V32.6937H29.4043C38.2478 26.8043 43.4833 21.1527 43.4833 15.817C43.4833 10.7979 39.7951 8.10971 34.044 8.10971L34.0447 8.10906ZM57.4197 33.6813C53.8906 33.6813 52.1849 31.2304 51.8679 28.2663H46.712C47.0296 33.2068 50.5982 37.7915 57.3408 37.7915C63.2504 37.7915 68.1676 34.1551 68.1676 27.8312C68.1676 21.2301 63.6067 17.7522 58.6895 17.7522C55.9928 17.7522 54.2075 18.4246 52.9786 19.3335L53.7716 13.2075H67.0182V8.62284H49.2903L47.3866 24.3927L52.3835 24.6299C52.9786 23.2465 54.7632 22.021 57.3007 22.021C59.9579 22.021 62.6151 23.9182 62.6151 27.8705C62.6151 31.5069 60.434 33.6813 57.4197 33.6813Z" fill="#32798F"/>
<path fill-rule="evenodd" clip-rule="evenodd" d="M153.636 1.56887C155.054 2.99094 155.73 4.5906 155.187 6.47991C154.83 6.43862 154.475 6.39668 154.118 6.3554C154.097 6.60704 154.076 6.85934 154.057 7.11034C152.912 10.731 148.362 12.5024 141.914 13.2468C138.745 14.9769 136.419 17.1421 134.656 20.6599C136.042 30.2166 136.581 40.0485 133.31 48.5455C131.204 54.0175 127.31 58.6814 121.729 63.2144C119.359 60.0589 118.797 55.9153 120.559 50.5056C120.129 47.381 120.091 44.0709 121.144 40.2464C120.67 34.4087 121.065 28.5376 122.386 23.3992C121.358 25.7269 120.622 27.4557 119.374 29.3601C112.548 31.7625 104.286 31.6924 95.9766 30.2048C93.6725 30.7618 91.7288 31.2166 89.4542 32.2605C86.0244 34.6826 81.6957 35.817 76.4917 34.8478C78.9056 29.3319 85.5036 27.088 89.7179 28.1221C91.158 27.7388 92.6461 27.4203 93.929 27.2696C91.9793 27.0369 90.1177 26.7512 88.2851 26.2853C101.225 9.82798 117.757 1.92668 132.256 6.37833C132.038 8.02583 130.725 9.89352 129.259 11.9309C131.294 10.5947 132.655 8.9872 133.895 7.25254C137.141 6.39472 140.935 3.7485 144.482 1.59836C147.757 -0.323715 150.947 -0.7215 153.636 1.56953L153.636 1.56887ZM142.555 14.3314C146.956 23.8238 145.894 33.1315 141.093 42.3133C140.56 34.5778 139.307 27.1778 136.121 20.6861C137.906 17.2162 140.068 15.1584 142.555 14.3314ZM103.973 31.9263C103.94 34.7351 102.429 36.7456 100.522 38.5432C98.6299 36.8479 98.6102 33.5201 96.3389 31.1399C99.2151 31.9152 101.799 32.2402 103.972 31.927L103.973 31.9263Z" fill="#32798F"/>
</svg>
